<svg xmlns="http://www.w3.org/2000/svg" width="141.466" height="17.385" viewBox="0 0 141.466 17.385">
  <g id="Group_1774" data-name="Group 1774" transform="translate(7971 11173.359)">
    <path id="Path_21182" data-name="Path 21182" d="M69.316,149.026a3.155,3.155,0,0,1,.3-.386q8.867-8.352,17.743-16.694a.891.891,0,0,1,.516-.275c2.687-.018,5.375-.012,8.112-.012l3.983,16.611c.133-.277.219-.438.289-.606q3.222-7.735,6.43-15.476a.733.733,0,0,1,.814-.542c2.166.026,4.332.023,6.5,0a.721.721,0,0,1,.763.474q1.092,2.256,2.238,4.486a1.086,1.086,0,0,1,.033,1c-.617,1.532-1.213,3.072-1.814,4.611a.94.94,0,0,0-.067.57c.156-.117.315-.229.466-.35q6.552-5.229,13.111-10.45a1.582,1.582,0,0,1,.9-.313c2.314-.026,4.629-.014,7.051-.014l-6.78,16.3.108.085c.142-.125.288-.246.426-.376q8.31-7.8,16.611-15.613a1.37,1.37,0,0,1,1.035-.406c2.427.014,4.855,0,7.283,0,.288,0,.506-.018.6.382q1.98,8.423,4,16.838a1.3,1.3,0,0,1,.018.165h-4.147l-1.051-4.548a1.449,1.449,0,0,0-.222-.035c-3.844,0-7.687-.008-11.531.009a1.013,1.013,0,0,0-.616.291c-1.208,1.16-2.4,2.335-3.593,3.513-.246.243-.464.513-.7.77H121.318l5.162-12.336c-.609.558-1.125,1.09-1.7,1.55q-5.44,4.341-10.9,8.654c-.563.446-.921.367-1.193-.269-1.415-3.312-2.983-6.559-4.211-9.8l-5.086,12.2H91.058l-.891-4.573c-3.85,0-7.619,0-11.388.01a.783.783,0,0,0-.478.222q-2.26,2.161-4.5,4.342Zm83.41-14.365-7.539,7.364h9.106l-1.567-7.364m-64.4.346-7.35,7.056h8.674l-1.324-7.056" transform="translate(-8018.238 -11305)" fill="#fff"/>
    <path id="Path_21183" data-name="Path 21183" d="M0,149.076a3.917,3.917,0,0,1,.141-.53c1.258-3.014,2.529-6.024,3.776-9.043a.622.622,0,0,1,.7-.457c1.025.027,2.052.009,3.193.009L4.9,146.006a.816.816,0,0,0,.2.068c2.258-.035,4.522.015,6.772-.146a13.941,13.941,0,0,0,3.335-.852,3.728,3.728,0,0,0,1.914-1.653A15.312,15.312,0,0,0,19.2,138.53a2.931,2.931,0,0,0-2.405-3.839,13.145,13.145,0,0,0-2.718-.269c-2.427-.035-4.855-.012-7.284-.012h-.74c.38-.912.716-1.743,1.081-2.56.039-.086.251-.136.382-.135,4.668.024,9.337.013,14,.118a10.974,10.974,0,0,1,3.32.7,4.533,4.533,0,0,1,3.093,5.715,13.559,13.559,0,0,1-8.743,9.707,17.437,17.437,0,0,1-5.366,1.009c-.388.026-.775.076-1.163.114Z" transform="translate(-7971 -11305.05)" fill="#fff"/>
    <path id="Path_21184" data-name="Path 21184" d="M364.142,149.071c-1.017-.112-2.049-.149-3.045-.357a9.711,9.711,0,0,1-2.737-.894,4.48,4.48,0,0,1-2.216-4.953,12.025,12.025,0,0,1,4.993-8.08,14.807,14.807,0,0,1,8.485-2.953c4.737-.16,9.482-.1,14.223-.126a1.78,1.78,0,0,1,.275.053,4.342,4.342,0,0,1-.143.532c-.6,1.459-1.2,2.918-1.819,4.368-.066.154-.256.361-.393.364-1.118.03-2.236.017-3.449.017l1.1-2.692c-1.685,0-3.3-.022-4.915.01a13.9,13.9,0,0,0-2.222.217,9.336,9.336,0,0,0-7.443,8.168,2.421,2.421,0,0,0,1.947,2.939,20.236,20.236,0,0,0,4.078.583c2.348.092,4.7.025,7.134.025l-1.071,2.78Z" transform="translate(-8213.654 -11305.045)" fill="#fff"/>
  </g>
</svg>
