<svg xmlns="http://www.w3.org/2000/svg" width="175.946" height="42.418" viewBox="0 0 175.946 42.418">
  <g id="Group_1780" data-name="Group 1780" transform="translate(3573.446 11305)">
    <path id="Path_21283" data-name="Path 21283" d="M4437.751,110.4h-1.7V99.324h1.724c2.832,0,5.182,1.784,5.182,5.546s-2.372,5.528-5.209,5.528m.147-14.2h-4.665a.562.562,0,0,0-.556.556v16.22a.558.558,0,0,0,.556.556h4.637c4.938,0,8.583-3.175,8.583-8.654s-3.621-8.678-8.558-8.678m-4.665,0a.562.562,0,0,0-.556.556v16.22a.558.558,0,0,0,.556.556" transform="translate(-8000.201 -11384.653)" fill="#fff"/>
    <path id="Path_21284" data-name="Path 21284" d="M4568.883,173.57a2.225,2.225,0,1,1-2.225,2.224,2.225,2.225,0,0,1,2.225-2.224" transform="translate(-8111.6 -11448.926)" fill="#fff"/>
    <path id="Path_21285" data-name="Path 21285" d="M4626.193,103.882h-2.738V99.066h2.738a2.426,2.426,0,1,1,0,4.816m2.466,2.488a4.915,4.915,0,0,0,3.691-4.9,5.2,5.2,0,0,0-5.057-5.338c-.156,0-.312,0-.468.008h-6.212a.557.557,0,0,0-.556.553v16.22a.556.556,0,0,0,.556.556h2.286a.558.558,0,0,0,.556-.556v-6.118h1.761l3.126,6.118a1.067,1.067,0,0,0,.837.556h2.631c.3,0,.428-.251.275-.556Z" transform="translate(-8155.521 -11384.597)" fill="#fff"/>
    <path id="Path_21286" data-name="Path 21286" d="M4533.531,127a3.574,3.574,0,0,0-3.423,1.879v-1.233a.552.552,0,0,0-.519-.55h-2.078a.556.556,0,0,0-.552.538V138.57a.561.561,0,0,0,.552.553h2.137v-.006a.557.557,0,0,0,.553-.556v-4.938c0-2.592,1.445-3.4,3.11-3.4a4.692,4.692,0,0,1,.979.1V127.05a7.421,7.421,0,0,0-.758-.046" transform="translate(-8078.593 -11410.229)" fill="#fff"/>
    <path id="Path_21287" data-name="Path 21287" d="M4971.757,127.635H4969.4a1.138,1.138,0,0,0-.861.55l-2.726,6.487-2.952-6.485a1.133,1.133,0,0,0-.868-.55h-2.511c-.3,0-.416.248-.239.556l4.838,9.953-2.586,5.7c-.153.3-.031.553.274.553h2.339a1.066,1.066,0,0,0,.818-.523L4972,128.185c.171-.3.064-.544-.239-.547" transform="translate(-8436.732 -11410.624)" fill="#fff"/>
    <path id="Path_21288" data-name="Path 21288" d="M5067.41,130.52l-1.708-.367c-.66-.12-1.1-.489-1.1-1.076a1.381,1.381,0,0,1,1.537-1.2,1.825,1.825,0,0,1,1.846,1.134.493.493,0,0,0,.584.381l.031-.008,1.747-.395a.554.554,0,0,0,.379-.633c-.367-1.283-1.623-2.942-4.611-2.942a4.186,4.186,0,0,0-4.489,3.859q0,.039-.006.077c0,1.684,1.048,3.08,3.371,3.588l1.592.37c.923.193,1.294.635,1.294,1.171,0,.635-.516,1.2-1.591,1.2a2,2,0,0,1-2.153-1.589h-.005a.266.266,0,0,0-.291-.189l-2.042.45a.556.556,0,0,0-.381.642c.379,1.369,1.723,3.178,4.9,3.178,3.154,0,4.665-2,4.665-3.958,0-1.76-1.2-3.2-3.569-3.691" transform="translate(-8521.548 -11408.907)" fill="#fff"/>
    <path id="Path_21289" data-name="Path 21289" d="M4703.46,130.465a2.6,2.6,0,0,1,2.687-2.368,2.419,2.419,0,0,1,2.674,2.133q.013.117.015.235Zm2.641-5.009a6.388,6.388,0,0,0,.293,12.754,5.434,5.434,0,0,0,5.317-3.4.544.544,0,0,0-.388-.578l-1.745-.519a.574.574,0,0,0-.581.251,2.648,2.648,0,0,1-2.576,1.458,2.929,2.929,0,0,1-3.032-2.735h8.089a.552.552,0,0,0,.55-.546c.01-.144.012-.3.012-.458,0-3.862-2.225-6.231-5.941-6.231" transform="translate(-8221.983 -11408.949)" fill="#fff"/>
    <path id="Path_21290" data-name="Path 21290" d="M4790.472,109.059c-1.714,0-2.983-1.271-2.983-3.419a3.02,3.02,0,0,1,2.645-3.353,3.065,3.065,0,0,1,.338-.021,2.98,2.98,0,0,1,2.978,2.983,2.868,2.868,0,0,1-.023.366c0,2.173-1.295,3.443-2.955,3.443m6.108,2.109-.012-11.205V94.537a.556.556,0,0,0-.557-.556h-2.093a.553.553,0,0,0-.541.486l-.016.07v6.119h.016v.2c-.342-.635-1.315-1.491-3.4-1.491-3.4,0-5.766,2.763-5.766,6.283,0,3.639,2.441,6.328,5.86,6.328a3.767,3.767,0,0,0,3.37-1.686v.049l.007-.012c0,.175.005.32.011.458a6.91,6.91,0,0,0,.073.709v-.006a.329.329,0,0,0,.269.189h2.228l-.01-.012a.554.554,0,0,0,.544-.5" transform="translate(-8291.656 -11382.812)" fill="#fff"/>
    <path id="Path_21291" data-name="Path 21291" d="M4879.127,109.059c-1.711,0-2.983-1.271-2.983-3.419a3.018,3.018,0,0,1,2.983-3.374,2.98,2.98,0,0,1,2.956,3.349c0,2.173-1.3,3.443-2.956,3.443m6.1,2.109-.01-11.205V94.537a.556.556,0,0,0-.556-.556h-2.094a.558.558,0,0,0-.543.486l-.016.07v6.119h.016v.2c-.342-.635-1.316-1.491-3.4-1.491-3.4,0-5.766,2.763-5.766,6.283,0,3.639,2.441,6.328,5.868,6.328a3.768,3.768,0,0,0,3.37-1.686v.049l.006-.012c0,.175,0,.32.01.458.018.275.045.523.073.709a.327.327,0,0,0,.271.189h2.224l-.01-.012a.551.551,0,0,0,.553-.5" transform="translate(-8365.166 -11382.812)" fill="#fff"/>
    <path id="Path_21292" data-name="Path 21292" d="M5048.208,91.867a1.919,1.919,0,0,0,.134-.7,1.993,1.993,0,1,0-2.476,1.914l-1.085,2.423-.006.052a.2.2,0,0,0,.2.2h0v.006h1.088a.379.379,0,0,0,.287-.183l1.818-3.615c.014-.031.026-.062.037-.095v-.006" transform="translate(-8507.456 -11378.917)" fill="#fff"/>
    <path id="Path_21293" data-name="Path 21293" d="M5190.091,51.47V26.124a9.5,9.5,0,0,0-8.88-9.551,10.984,10.984,0,0,0-11.618,8.22,12.251,12.251,0,0,0,1.788,9.6c2.411,3.7,12.327,13.534,17.112,17.912a.956.956,0,0,0,.59.2,1.033,1.033,0,0,0,1.008-1.043m-2.069-11.642a1.78,1.78,0,1,1-1.778-1.863,1.827,1.827,0,0,1,1.778,1.863" transform="translate(-8610.586 -11318.739)" fill="#fff"/>
    <path id="Path_21294" data-name="Path 21294" d="M5315.027,146.849a4.416,4.416,0,1,0,4.416,4.416,4.415,4.415,0,0,0-4.416-4.416Z" transform="translate(-8728.093 -11426.725)" fill="#fff"/>
    <path id="Path_21295" data-name="Path 21295" d="M5303.076,206.294a1.524,1.524,0,1,0,1.521,1.526h0a1.525,1.525,0,0,0-1.521-1.525" transform="translate(-8720.559 -11476.024)" fill="#fff"/>
    <path id="Path_21296" data-name="Path 21296" d="M5357.716,79.62a5.86,5.86,0,1,0,.02,0h-.02" transform="translate(-8762.382 -11370.979)" fill="#fff"/>
    <path id="Path_21297" data-name="Path 21297" d="M5395.705,33.62a3.078,3.078,0,1,0,3.079,3.08,3.078,3.078,0,0,0-3.079-3.08" transform="translate(-8796.284 -11332.953)" fill="#fff"/>
    <path id="Path_21298" data-name="Path 21298" d="M5313.242,21.907a5.634,5.634,0,1,0-5.632-5.637v0a5.636,5.636,0,0,0,5.632,5.634" transform="translate(-8725.598 -11313.845)" fill="#fff"/>
    <path id="Path_21299" data-name="Path 21299" d="M5309.271,93.378a3.349,3.349,0,1,1-3.349-3.349,3.349,3.349,0,0,1,3.349,3.349" transform="translate(-8721.409 -11379.64)" fill="#fff"/>
    <rect id="Rectangle_4086" data-name="Rectangle 4086" width="175.946" height="42.418" transform="translate(-3573.446 -11305)" fill="none"/>
  </g>
</svg>
