<svg xmlns="http://www.w3.org/2000/svg" width="186.271" height="35.832" viewBox="0 0 186.271 35.832">
  <g id="Group_1779" data-name="Group 1779" transform="translate(4912.424 10687.671)">
    <path id="Path_21272" data-name="Path 21272" d="M3114.1,57.228q0-8.413.006-16.826c0-.358-.159-.839.257-1.026.457-.2.643.295.87.556q8.559,9.847,17.1,19.71c.2.232.491.461.324.8s-.545.229-.839.23c-3.1.006-6.2.025-9.292-.016a1.291,1.291,0,0,0-1.386.894c-1.953,4.232-3.955,8.442-5.943,12.658-.117.248-.239.495-.368.737a.387.387,0,0,1-.431.21c-.207-.035-.267-.2-.279-.378-.021-.308-.025-.618-.025-.928q0-8.31,0-16.619Z" transform="translate(-8011.734 -10727)" fill="#fff"/>
    <path id="Path_21273" data-name="Path 21273" d="M3055.113,113.631c0,3.471.005,6.942-.008,10.413,0,.346.174.86-.317.972-.523.119-.523-.451-.668-.758-.982-2.08-1.979-4.155-2.89-6.266a1.553,1.553,0,0,0-1.689-1.121c-2.026.064-4.055.025-6.083.018-.3,0-.68.069-.837-.25-.171-.346.183-.546.374-.773q5.543-6.574,11.093-13.142c.188-.222.326-.615.7-.5.432.137.31.563.31.887q.011,5.258,0,10.516Z" transform="translate(-7955 -10776.889)" fill="#fff"/>
    <path id="Path_21274" data-name="Path 21274" d="M3405.052,111.638c0-2.407.022-4.815-.015-7.221-.01-.644.2-.816.816-.812q5.984.035,11.968,0c.583,0,.88.111.866.786-.015.7-.247.977-.971.971-3.267-.027-6.535.013-9.8-.033-.779-.011-1.016.2-.962.974a23.718,23.718,0,0,1,0,2.99c-.038.68.174.868.857.86,3.06-.034,6.121,0,9.182-.015.657,0,1.115,0,1.11.885,0,.853-.469.825-1.06.824-3.061-.007-6.122.031-9.182-.012-.738-.01-.935.188-.906.911.057,1.407.051,2.82,0,4.228-.025.653.188.8.808.794,3.3-.029,6.6-.006,9.9-.021.607,0,1.044-.006,1.038.836-.006.8-.308.965-1.042.959-3.886-.031-7.772-.037-11.658,0-.794.008-.98-.244-.965-1,.047-2.3.017-4.607.017-6.911Z" transform="translate(-8242.589 -10777.999)" fill="#fff"/>
    <path id="Path_21275" data-name="Path 21275" d="M3244.219,103.617c1.961,0,3.922.025,5.883-.012.676-.013.871.208.862.877-.009.639-.132.9-.845.889-3.268-.038-6.537.018-9.8-.041-.887-.016-1.112.267-1.058,1.089a23.306,23.306,0,0,1,0,2.888c-.041.689.2.856.865.848,3.062-.035,6.124-.007,9.186-.014.579,0,1.045-.066,1.048.814s-.417.9-1.076.894c-2.993-.019-5.986.022-8.979-.014-.768-.009-1.1.138-1.048,1a39.551,39.551,0,0,1,.007,4.023c-.031.717.17.925.9.915,3.268-.04,6.537-.008,9.805-.025.621,0,1.011.013,1.009.852s-.321.949-1.035.944q-5.832-.044-11.663,0c-.774.007-.984-.226-.978-1q.054-7.017,0-14.035c-.006-.753.249-.918.937-.905,1.995.036,3.991.013,5.986.014" transform="translate(-8109.498 -10777.997)" fill="#fff"/>
    <path id="Path_21276" data-name="Path 21276" d="M3874.865,106.112v12.207c0,1.056-.629,1.482-1.617,1.116-.482-.178-.29-.574-.291-.876-.013-4.024-.009-8.049-.01-12.073,0-.688.034-1.378-.008-2.063-.038-.627.1-.874.827-.9a2.309,2.309,0,0,1,2.151,1.017c2.959,3.792,5.985,7.532,9,11.284.224.278.377.639.851.835,0-3.142,0-6.22,0-9.3,0-1.032.033-2.066-.024-3.095-.042-.756.4-.755.91-.713.458.038,1.03-.208,1.023.69-.036,4.85-.021,9.7-.011,14.55,0,.466-.118.647-.631.685a2.434,2.434,0,0,1-2.353-1.039c-3.165-4.066-6.412-8.069-9.812-12.322" transform="translate(-8613.825 -10777.927)" fill="#fff"/>
    <path id="Path_21277" data-name="Path 21277" d="M3776.55,118.589c-3.371-.006-6.151-1.161-7.747-4.291a8.219,8.219,0,0,1,.623-8.962c1.861-2.649,4.622-3.4,7.7-3.292a8.169,8.169,0,0,1,7.6,5.364,8.241,8.241,0,0,1-8.177,11.181m-.022-14.734c-4.092-.007-6.719,2.486-6.745,6.4-.027,3.99,2.584,6.519,6.734,6.523,4.049,0,6.688-2.5,6.678-6.351-.01-4.072-2.542-6.57-6.667-6.578" transform="translate(-8530.391 -10776.752)" fill="#fff"/>
    <path id="Path_21278" data-name="Path 21278" d="M3583.036,119.474c-.7.224-1.027-.289-1.171-.882-.343-1.408-1.245-1.657-2.568-1.6-2.439.108-4.888.1-7.329,0a1.581,1.581,0,0,0-1.864,1.26c-.238.819-.632,1.337-1.664,1.254-.875-.071-.868-.327-.555-.983,1.537-3.216,3.049-6.445,4.572-9.668.7-1.488,1.446-2.959,2.1-4.47a1.135,1.135,0,0,1,1.188-.847,1.383,1.383,0,0,1,1.521.859c2.163,4.666,4.37,9.312,6.554,13.968.518,1.1.5,1.111-.781,1.106m-7.141-13.529-4.369,9.337h8.754l-4.385-9.337" transform="translate(-8371.646 -10777.947)" fill="#fff"/>
    <path id="Path_21279" data-name="Path 21279" d="M3493.621,116.845c1.369-2.907,2.648-5.618,3.924-8.331.685-1.456,1.364-2.916,2.051-4.371a1.614,1.614,0,0,1,2.031-.786c.49.215.168.5.053.751q-1.49,3.214-2.995,6.421c-1.239,2.633-2.52,5.246-3.712,7.9-.341.759-.835.8-1.531.836-.728.038-.948-.371-1.188-.883-2.164-4.618-4.338-9.231-6.487-13.856-.159-.342-.722-.718-.2-1.138a1.757,1.757,0,0,1,1.96.49q1.685,3.577,3.36,7.158c.872,1.859,1.745,3.717,2.727,5.809" transform="translate(-8306.316 -10777.71)" fill="#fff"/>
    <path id="Path_21280" data-name="Path 21280" d="M3651.2,103.5c2.339,0,4.679-.012,7.018.015.353,0,.895-.269,1.036.321.113.468-.708,1.415-1.18,1.417-1.651.01-3.3.033-4.954-.012-.7-.02-.939.151-.932.9.041,4.024.021,8.049.026,12.073,0,1.131-.506,1.5-1.6,1.188-.542-.155-.4-.575-.4-.925-.007-4.093-.024-8.187.014-12.28.007-.752-.153-1-.948-.962-1.579.074-3.164.026-4.747.023a1.52,1.52,0,0,1-1.377-1.424c.045-.51.453-.326.716-.328,2.443-.014,4.885-.008,7.328-.007" transform="translate(-8431.521 -10777.883)" fill="#fff"/>
    <path id="Path_21281" data-name="Path 21281" d="M3323.378,111.5c0-2.34.03-4.681-.017-7.02-.015-.759.261-.949.956-.911.613.034,1.1-.043,1.093.884-.05,4.06.019,8.122-.049,12.182-.016.966.29,1.1,1.144,1.089,3.028-.05,6.058,0,9.086-.033.729-.009.954.209.947.934-.007.69-.247.886-.909.882q-5.679-.033-11.358,0c-.767.006-.909-.308-.9-.992.036-2.34.014-4.68.014-7.02Z" transform="translate(-8177.785 -10777.966)" fill="#fff"/>
    <path id="Path_21282" data-name="Path 21282" d="M3739.624,111.543c0,2.371-.035,4.742.018,7.111.018.8-.339.889-.988.888-.628,0-1.029-.045-1.024-.853q.047-7.163.009-14.326c-.006-.94.583-.705,1.09-.746.6-.048.933.051.915.815-.056,2.369-.021,4.741-.021,7.111" transform="translate(-8506.481 -10778)" fill="#fff"/>
  </g>
</svg>
