<svg xmlns="http://www.w3.org/2000/svg" width="80.315" height="53.46" viewBox="0 0 80.315 53.46">
  <g id="Group_8964" data-name="Group 8964" transform="translate(6005.869 11305)">
    <path id="Path_21211" data-name="Path 21211" d="M1966.37,57.808l.476,22.186.115,18.059,38.151-.827,24.72-.2,15.69,1.031-.36-23.631.952-16.408-8.325.782-31.487.251Z" transform="translate(-7971.967 -11350.088)" fill="#fff"/>
    <path id="Path_21212" data-name="Path 21212" d="M1965.533,56.642c10.7,1.256,74.175,1.406,79.91.478-2.7,1.629-24.1,1.612-38.959,1.565s-29.578-.258-40.017-1c-1-.1-1.874-.869-.933-1.046" transform="translate(-7971 -11349.179)"/>
    <path id="Path_21213" data-name="Path 21213" d="M2324,99.21c-.292-2.362.37-39.192.718-40.463-.736.832-1.356,5.194-1.478,8.483s-.007,29.375.3,31.664c.022.221.393.524.458.316" transform="translate(-8250.271 -11350.819)"/>
    <path id="Path_21214" data-name="Path 21214" d="M1966.24,99.21c.292-2.362-.371-39.192-.721-40.463.739.832,1.355,5.194,1.478,8.483s.011,29.375-.3,31.664c-.022.221-.393.524-.458.316" transform="translate(-7971.303 -11350.819)"/>
    <path id="Path_21215" data-name="Path 21215" d="M2034.862,3.169s9.8-3.072,16.644-.987c5.655,1.725,6.6,2.9,6.6,2.9a21.333,21.333,0,0,1,6.987-2.627c3.172-.345,10.507-2.688,17.7-.253-3.515,7.162-5.7,14.489-9.565,31.2-7.7-2.065-27.716-2-32.125-.828-1.308-4.618-6.8-27.734-7.009-28.974Z" transform="translate(-8024.786 -11305.868)" fill="#fff"/>
    <path id="Path_21216" data-name="Path 21216" d="M2141.354,29.56a2.1,2.1,0,0,1,2.072,1.183c.094.214,1.006.548.969,1.061-.028.417-1.358,1.007-2.088,2.6a1.88,1.88,0,0,0-.245,1.1,11.363,11.363,0,0,1-.6,1.773c-.764,1.474-.62,2.651-.876,3.02-.443.631-.8.485-.893.349-.192-.258-.5-.245-.62-.513a6.571,6.571,0,0,1-.019-.762c0-.1.015-.194.022-.292s0-.2,0-.3c.031-.277.085-.542.111-.821a5.368,5.368,0,0,0,.011-.546c.007-.094.011-.186.015-.282a1.454,1.454,0,0,0-.026-.225c-.015-.064-.027-.129-.046-.2-.022-.1-.033-.2-.055-.306a4.19,4.19,0,0,1-.089-.437,1.435,1.435,0,0,1,.042-.31c0-.183-.022-.356-.022-.539v-.31a.989.989,0,0,0,0-.209,1.1,1.1,0,0,0-.085-.208,2.443,2.443,0,0,1-.1-.308c-.026-.037-.044-.075-.068-.112a1.709,1.709,0,0,1-.12-.231c-.068-.17-.313-.71-.4-1-.1-.352.483-.535.815-.978s.489-2.083,2.292-2.2" transform="translate(-8106.015 -11328.052)" fill="#ccc"/>
    <path id="Path_21217" data-name="Path 21217" d="M2088.866,23.646a15.388,15.388,0,0,1,3.758,1.432,3.284,3.284,0,0,1,.336.21c.209.164.424.327.624.506.118.114.234.234.352.349s.253.177.375.277c.033.041.072.083.109.124a3.342,3.342,0,0,1,.321.353,2.838,2.838,0,0,1,.161.293c.036.057.077.109.109.164s.057.12.1.175.075.118.111.179.066.118.094.173c.045.066.091.124.133.186s.074.155.109.232.087.114.118.179c.045.1.071.207.109.315.026.07.068.135.1.2.031.105.061.21.094.312.024.061.046.118.072.179.031.1.046.218.072.327.017.055.031.109.046.164s.026.136.037.208c.024.105.064.212.089.318s.022.183.041.273.068.183.087.277c.011.065.019.133.028.2.019.114.055.22.079.327.015.088.026.175.041.264a1.848,1.848,0,0,1,.065.293,2.9,2.9,0,0,1,0,.4c0,.109-.079,1.007-.125,1.367,0,.009-.029.7-.029.947-.152.725.627.8.673,1.085-.238-.775.93,1.024-2.223,1.862-2.09.941-2.825.843-2.972.8-1.81-.5-2.836-2.387-3.175-2.821.127.162-.469-.277-.447-1.039a1.8,1.8,0,0,1,.808-1.325c.45-.709-1.208-.9-2.985-2.9-.458-.515-.64-1.666.937-2.124.131-.4-2.537-1.148-3.229-3.1-.563-1.572.646-2.552,5.009-1.651" transform="translate(-8063.501 -11323.175)" fill="#f4f4f4"/>
    <path id="Path_21218" data-name="Path 21218" d="M2161.675,10.347c.284.529-.706,2.14-4.321,6.1.022-.026-1.135,1.559-1.463,2.051a24.848,24.848,0,0,1-1.037,2.627c.568-.963-.522.777-3.651,3.7-.624.585-5.559,6.05-5.188,2.483.015-.172.259-.437.36-.893.109-.48-.364-.718.192-1.668a1.9,1.9,0,0,0,.371-1.3c.511-2.19.93-2.576,1.105-2.742.57-.535.135-.83,1.622-2.472,3.074-3.41,3.709-3.306,6.624-6.266s4.681-2.937,5.387-1.624" transform="translate(-8112.066 -11312.409)" fill="#ccc"/>
    <path id="Path_21219" data-name="Path 21219" d="M2094.452,30.475c.738-.9,2.411-1.126,4.158-.989a7.527,7.527,0,0,1,4.832,2.111c2.114,2.273,1.975,5.727,1.6,8.114,1.444-2.633.454-5.421,3.179-7.4.155-.111.511.247.4.364-1.542,1.688-1.435,5.157-3.338,7.74-.039.057-.4-.214-.359-.328-.091.234-.3.149-.476.042a.414.414,0,0,1-.227-.467c.447-3.127-.041-6.151-2.65-8.2a7.6,7.6,0,0,0-4.53-1.1,2.491,2.491,0,0,0-1.629.494c-.633.644,3,1.7,3.027,2.67.026.871-1.315.991-1.405,1.293-.118.419,3.3,1.286,3.254,2.2-.03.782-1.16,1-1.194,1.327-.065.7,1.243.928,2.052,3.116.015.05-.011.351-.137.408-.105.05-.487-.236-.642-.432-1.376-1.755-2.5-1.66-2.462-2.415.042-.9,1.1-1.341,1.474-1.8-.613-.993-3.611-1.458-3.326-2.613.219-.9,1.221-.856,1.278-1.2.045-.266-.8-.613-1.614-1.078-.923-.53-1.808-1.2-1.275-1.851" transform="translate(-8071.74 -11327.969)"/>
    <path id="Path_21220" data-name="Path 21220" d="M2149.16,26.667a24.359,24.359,0,0,1,5.1-4.72c1.134-.836,4.446-3.434,6.057-2.483.958.566-2.722,3.67-3.2,4.175-.282.291-.607,1.585-1.262,2.5-.771,1.072-5.618,6.565-7.553,7.976-.208.149-.465.317-.572.245-.033-.022.035-.09-.041-.142-.046-.031-.068.077-.169-.033s.158-.515.306-.729c.52-.771,6.234-6.122,6.447-6.923s.751-2.088,3.579-4.548c1.214-1.055,2.118-1.878,1.712-2.087-.184-.094-.747-.007-1.522.45-1.389.819-3.286,2.338-3.71,2.629-.657.45-3.334,3.164-4.131,3.852-.409.36-.764.546-.958.517-.053-.007-.053-.09-.094-.12s-.136-.005-.159-.065a.9.9,0,0,1,.17-.5" transform="translate(-8113.237 -11320.021)"/>
    <path id="Path_21221" data-name="Path 21221" d="M2150.707,38.573c.594,0,.511.764-.061.764-.45,0-.4-.764.061-.764" transform="translate(-8115.45 -11335.086)"/>
    <path id="Path_21222" data-name="Path 21222" d="M2145.721,35.156c.046-.164.45-1.1,1.192-1.076.766.026.8.293.941.481a1.843,1.843,0,0,0,1.122.57c.2,0,.158-.207.064-.384a1.487,1.487,0,0,0-.364-.45,1.37,1.37,0,0,0-1.277-1.05,1.793,1.793,0,0,0-1.808,1.849c-.011.142.02.262.129.059" transform="translate(-8111.75 -11330.931)"/>
    <path id="Path_21223" data-name="Path 21223" d="M2035.32,2.435c4.847-3.122,18.666-2.712,23.63,2.345-2.574-1.932-15.176-5.192-24-1.792Z" transform="translate(-8025.458 -11305.354)"/>
    <path id="Path_21224" data-name="Path 21224" d="M2144.811,4.08c1.86-2.688,15.6-5.972,24.349-2.734-11.166-2.55-21.131,2.367-24.349,2.734" transform="translate(-8111.143 -11305)"/>
    <path id="Path_21225" data-name="Path 21225" d="M2040.521,36.264c-.579-1.838-1.369-6-2.666-12.037-1.572-7.308-4.321-15.422-4.473-16.934-1.1,4.688,2.262,10.03,3.69,17.163,1.009,5.038,1.564,11.762,3.354,12.52a4.583,4.583,0,0,0,2.347.136c7.925-1.31,23.365-1.445,29.844.555.758-4.413,8.43-29.682,9.463-31.544-4.341,6.754-8.291,22.651-9.762,31.013-8.387-2.849-26.031-2.09-31.8-.873" transform="translate(-8024.063 -11309.776)"/>
    <path id="Path_21226" data-name="Path 21226" d="M2073.551,99.69a4.2,4.2,0,0,1-.424.024c-.116,0-.249-.009-.393-.024a.488.488,0,0,1-.091-.009l-1.063,5.175a7.746,7.746,0,0,1-.444,1.625.923.923,0,0,1-.5.476l.053.363a1.859,1.859,0,0,0,1.236-.768,7.4,7.4,0,0,0,.793-2.419l.756-3.7a.934.934,0,0,1,.163-.408.471.471,0,0,1,.306-.149l.046-.245c-.147.027-.3.046-.443.059" transform="translate(-8053.292 -11382.708)"/>
    <path id="Path_21227" data-name="Path 21227" d="M2090.964,99.668c-.022,0-.046.006-.072.007-.144.009-.288.015-.427.015s-.28-.005-.421-.015-.28-.026-.426-.044l-.039.173a.314.314,0,0,1,.253.111.394.394,0,0,1,.024.293l-.443,2.142a2.355,2.355,0,0,1-.411,1.081,1.006,1.006,0,0,1-.753.26c-.334,0-.552-.088-.644-.264a1.862,1.862,0,0,1,.02-1.078l.548-2.683c-.024,0-.053.006-.079.007-.148.009-.284.015-.421.015s-.275-.005-.415-.015-.28-.026-.424-.044l-.037.175a.319.319,0,0,1,.253.109.406.406,0,0,1,.022.293l-.43,2.1a2.02,2.02,0,0,0,.105,1.577,1.661,1.661,0,0,0,1.376.443,2.344,2.344,0,0,0,1.557-.443,2.779,2.779,0,0,0,.753-1.577Z" transform="translate(-8065.7 -11382.708)"/>
    <path id="Path_21228" data-name="Path 21228" d="M2109.695,100.731a.713.713,0,0,0-.264-.788,2.15,2.15,0,0,0-1.214-.262h-1.762l-.8,3.987a.54.54,0,0,1-.146.3.494.494,0,0,1-.3.109l-.035.177h2.065a3.193,3.193,0,0,0,1.577-.336,1.41,1.41,0,0,0,.721-.974.828.828,0,0,0-.177-.786,1.3,1.3,0,0,0-.878-.349,1.769,1.769,0,0,0,.814-.389,1.168,1.168,0,0,0,.4-.686m-1.21,2.157a.846.846,0,0,1-.371.561,1.375,1.375,0,0,1-.779.2h-.684l.3-1.48h.644a1.172,1.172,0,0,1,.74.186.5.5,0,0,1,.151.535l.107-1.97a.78.78,0,0,1-.349.511,1.3,1.3,0,0,1-.721.183h-.458l.279-1.351h.493a.962.962,0,0,1,.635.166.489.489,0,0,1,.122.491l-.107,1.97" transform="translate(-8080.229 -11382.747)"/>
    <path id="Path_21229" data-name="Path 21229" d="M2128.314,99.668c-.144.007-.284.013-.423.013s-.277-.006-.413-.013a.8.8,0,0,0-.094-.009l-.8,3.985a.533.533,0,0,1-.144.3.476.476,0,0,1-.295.111l-.035.177c.172-.024.33-.042.474-.055s.271-.017.389-.017.245.006.382.017.29.031.458.055l.037-.177a.344.344,0,0,1-.253-.111.409.409,0,0,1-.017-.3l.7-3.443a.555.555,0,0,1,.142-.293.473.473,0,0,1,.3-.109l.039-.177c-.151.02-.3.035-.446.046" transform="translate(-8096.559 -11382.7)"/>
    <path id="Path_21230" data-name="Path 21230" d="M2140.682,103.191a.471.471,0,0,1-.249.327,1.17,1.17,0,0,1-.568.059h-1.471l.692-3.376a.422.422,0,0,1,.479-.4l.039-.177c-.189.02-.356.033-.511.046s-.29.013-.4.013c-.137,0-.277-.005-.419-.013-.027-.006-.061-.007-.089-.011l-.793,3.967a.574.574,0,0,1-.14.3.5.5,0,0,1-.3.109l-.041.177h3.636a3.8,3.8,0,0,1,.126-.519,3.237,3.237,0,0,1,.158-.472Z" transform="translate(-8104.982 -11382.701)"/>
    <path id="Path_21231" data-name="Path 21231" d="M2156.742,99.637h-.227c-.1,0-.268,0-.367,0l-.631,3.127-1.395-3.142c-.133.017-.266.028-.4.035s-.262.011-.4.011-.254,0-.378-.011-.244-.018-.364-.035l-.035.177c.133.018.22.059.251.118a.673.673,0,0,1-.007.369l-.511,2.5-.253,1.245h-.035l-.057,0a.335.335,0,0,1-.238-.092.746.746,0,0,1-.135-.36l-.658-3.428c-.015-.068-.03-.144-.041-.231s-.02-.183-.035-.3c-.14.017-.275.028-.4.035s-.255.011-.367.011c-.133,0-.26,0-.378-.011s-.245-.018-.363-.035l-.037.166a.423.423,0,0,1,.216.048.108.108,0,0,1,.048.129.473.473,0,0,1-.033.083.72.72,0,0,1-.072.125s-2.083,3.221-2.053,3.17c0,0,.382.009.613.009.212,0,.148-.018.148-.018l.487-.738,1.7.007.245,1.583.03,0c.173-.009.341-.011.5-.011h.4c.03,0,.234.007.458,0h0l0,0,.044,0v0l.007,0h.017c.068,0,.109,0,.2,0h.212a2.742,2.742,0,0,1,.3.011c.12.009.235.011.367.033l.033-.177a.472.472,0,0,1-.356-.127.579.579,0,0,1-.011-.433l.609-2.985,1.7,3.71h.768l.806-3.952h1.369l-.788,3.924.024,0c.162-.011.321-.017.468-.017s.3.006.469.017.339.031.533.055l.037-.177c-.2-.011-.332-.055-.386-.138a.831.831,0,0,1,.007-.55l.633-3.111.563,0a.739.739,0,0,1,.552.16.881.881,0,0,1,.118.6h.152c.011-.2.03-.417.055-.64s.057-.467.1-.731Zm-7.474,2.52a1.1,1.1,0,0,0-.641.4l1.4-2.232.257,1.8a6.364,6.364,0,0,0-1.02.031" transform="translate(-8113.15 -11382.7)"/>
    <path id="Path_21232" data-name="Path 21232" d="M2001.731,175.437l-.083.317a.53.53,0,0,1,.432.185.668.668,0,0,1,0,.515l-1.638,6.015a.96.96,0,0,1-.288.522.869.869,0,0,1-.535.19l-.081.321c.273-.039.537-.068.788-.092s.5-.031.736-.031c.209,0,.443.013.7.031s.548.054.86.092l.09-.321c-.255,0-.424-.052-.5-.168a.661.661,0,0,1-.015-.544l.662-2.424h1.424a1.462,1.462,0,0,1,.454.051.3.3,0,0,1,.2.2.785.785,0,0,1-.017.4h.244c.055-.231.1-.448.144-.642s.083-.373.127-.535c.042-.146.094-.321.159-.52s.136-.422.216-.668h-.234a1.1,1.1,0,0,1-.209.4.6.6,0,0,1-.306.186,1.953,1.953,0,0,1-.491.05h-1.422l.67-2.45h2.253a3.251,3.251,0,0,1,.561.029.7.7,0,0,1,.336.131.439.439,0,0,1,.133.286,1.6,1.6,0,0,1-.031.483h.269c.057-.317.122-.648.2-.98s.162-.681.26-1.03Z" transform="translate(-7997.836 -11441.834)"/>
    <path id="Path_21233" data-name="Path 21233" d="M2033.173,185.234a3.927,3.927,0,0,0-.147,1.033,2.945,2.945,0,0,0,.129.917,2.355,2.355,0,0,0,.4.755,2.056,2.056,0,0,0,.79.609,2.657,2.657,0,0,0,1.063.2,4.119,4.119,0,0,0,1.4-.245,4.308,4.308,0,0,0,1.214-.685,4.484,4.484,0,0,0,.956-1.042,4.689,4.689,0,0,0,.594-1.319,3.89,3.89,0,0,0,.148-1.028,2.809,2.809,0,0,0-.133-.9,2.27,2.27,0,0,0-.4-.745,2.082,2.082,0,0,0-.8-.6,2.665,2.665,0,0,0-1.059-.2,4.224,4.224,0,0,0-1.387.244,4.395,4.395,0,0,0-1.218.672,4.641,4.641,0,0,0-.948,1.03,4.512,4.512,0,0,0-.6,1.312m3.758-2.353a1.127,1.127,0,0,1,.865.362,1.74,1.74,0,0,1,.382,1.008,4.338,4.338,0,0,1-.177,1.529,3.521,3.521,0,0,1-.5,1.107,2.445,2.445,0,0,1-.756.707,1.875,1.875,0,0,1-.919.247,1.133,1.133,0,0,1-.873-.365,1.763,1.763,0,0,1-.386-1.018,4.624,4.624,0,0,1,.177-1.568,3.561,3.561,0,0,1,.5-1.087,2.221,2.221,0,0,1,.749-.683,1.925,1.925,0,0,1,.941-.238" transform="translate(-8023.955 -11446.935)"/>
    <path id="Path_21234" data-name="Path 21234" d="M2065.818,185.234a4.086,4.086,0,0,0-.144,1.033,2.9,2.9,0,0,0,.129.917,2.345,2.345,0,0,0,.4.755,2.093,2.093,0,0,0,.79.609,2.677,2.677,0,0,0,1.066.2,4.137,4.137,0,0,0,1.4-.245,4.379,4.379,0,0,0,1.218-.685,4.46,4.46,0,0,0,.948-1.042,4.658,4.658,0,0,0,.6-1.319,4.126,4.126,0,0,0,.144-1.028,2.972,2.972,0,0,0-.133-.9,2.3,2.3,0,0,0-.4-.745,2.11,2.11,0,0,0-.8-.6,2.664,2.664,0,0,0-1.059-.2,4.207,4.207,0,0,0-1.387.244,4.327,4.327,0,0,0-1.214.672,4.41,4.41,0,0,0-.952,1.03,4.533,4.533,0,0,0-.6,1.312m3.758-2.353a1.13,1.13,0,0,1,.865.362,1.669,1.669,0,0,1,.382,1.008,4.342,4.342,0,0,1-.173,1.529,3.629,3.629,0,0,1-.5,1.107,2.467,2.467,0,0,1-.756.707,1.887,1.887,0,0,1-.921.247,1.13,1.13,0,0,1-.87-.365,1.76,1.76,0,0,1-.386-1.018,4.4,4.4,0,0,1,.179-1.568,3.435,3.435,0,0,1,.494-1.087,2.248,2.248,0,0,1,.746-.683,1.94,1.94,0,0,1,.941-.238" transform="translate(-8049.419 -11446.935)"/>
    <path id="Path_21235" data-name="Path 21235" d="M2096.53,182.732l-.068.257a.42.42,0,0,1,.345.147.511.511,0,0,1,0,.411l-1.3,4.793a.793.793,0,0,1-.227.41.712.712,0,0,1-.424.148l-.072.255h2.2a6.708,6.708,0,0,0,2.375-.387,4.214,4.214,0,0,0,1.676-1.114,4.159,4.159,0,0,0,.948-1.771,3.275,3.275,0,0,0,.12-1.21,2.159,2.159,0,0,0-.328-.961,1.85,1.85,0,0,0-.729-.642,3.083,3.083,0,0,0-.939-.262,9.655,9.655,0,0,0-1.273-.072Zm1.672.843c.059,0,.119-.007.177-.007h.166a2.648,2.648,0,0,1,1.327.284,1.309,1.309,0,0,1,.64.823,2.485,2.485,0,0,1-.057,1.314,3.048,3.048,0,0,1-1.12,1.729,3.426,3.426,0,0,1-2.074.592h-.175c-.056,0-.116,0-.173-.011l1.29-4.723" transform="translate(-8072.121 -11447.522)"/>
    <path id="Path_21236" data-name="Path 21236" d="M2128.267,175.337l-.083.3a.741.741,0,0,1,.393.113.434.434,0,0,1,.162.277,2.2,2.2,0,0,1,.039.481l.113,6.873h1.485l2.482-4.435-.031,4.435h1.434l4.094-7.155a1.811,1.811,0,0,1,.231-.328.83.83,0,0,1,.27-.194,1.059,1.059,0,0,1,.358-.066l.083-.3c-.267.022-.509.039-.718.046s-.4.013-.548.013-.332,0-.537-.013-.428-.024-.674-.046l-.083.3a.853.853,0,0,1,.435.138.274.274,0,0,1,.053.316,1.889,1.889,0,0,1-.081.229c-.037.09-.09.2-.151.321l-2.528,4.67.059-4.657a1.535,1.535,0,0,1,.021-.218c.014-.076.033-.157.055-.234a.787.787,0,0,1,.152-.31.623.623,0,0,1,.277-.175,1.871,1.871,0,0,1,.446-.079l.083-.3c-.284.029-.572.052-.867.063s-.589.022-.884.022c-.256,0-.511-.007-.768-.022s-.514-.033-.775-.063l-.087.3a.828.828,0,0,1,.515.17.6.6,0,0,1,.162.456l.015,1.1-2.288,4.007-.042-4.889a2.228,2.228,0,0,1,.02-.271,1.675,1.675,0,0,1,.052-.255.363.363,0,0,1,.182-.218.8.8,0,0,1,.378-.1l.087-.3c-.277.029-.541.052-.782.063s-.476.022-.688.022c-.231,0-.476-.006-.731-.017s-.516-.033-.79-.068" transform="translate(-8098.174 -11441.755)"/>
    <path id="Path_21237" data-name="Path 21237" d="M2172.845,185.234a4.085,4.085,0,0,0-.147,1.033,2.889,2.889,0,0,0,.129.917,2.414,2.414,0,0,0,.4.755,2.115,2.115,0,0,0,.79.609,2.69,2.69,0,0,0,1.066.2,4.119,4.119,0,0,0,1.4-.245,4.333,4.333,0,0,0,1.218-.685,4.561,4.561,0,0,0,.952-1.042,4.746,4.746,0,0,0,.6-1.319,3.963,3.963,0,0,0,.148-1.028,2.871,2.871,0,0,0-.136-.9,2.2,2.2,0,0,0-.4-.745,2.1,2.1,0,0,0-.8-.6,2.7,2.7,0,0,0-1.063-.2,4.186,4.186,0,0,0-1.384.244,4.354,4.354,0,0,0-1.218.672,4.57,4.57,0,0,0-.952,1.03,4.519,4.519,0,0,0-.6,1.312m3.759-2.353a1.13,1.13,0,0,1,.865.362,1.693,1.693,0,0,1,.382,1.008,4.418,4.418,0,0,1-.174,1.529,3.526,3.526,0,0,1-.5,1.107,2.4,2.4,0,0,1-.756.707,1.873,1.873,0,0,1-.919.247,1.125,1.125,0,0,1-.869-.365,1.742,1.742,0,0,1-.39-1.018,4.559,4.559,0,0,1,.181-1.568,3.466,3.466,0,0,1,.492-1.087,2.248,2.248,0,0,1,.746-.683,1.95,1.95,0,0,1,.945-.238" transform="translate(-8132.893 -11446.935)"/>
    <path id="Path_21238" data-name="Path 21238" d="M2203.527,182.732l-.068.256a.41.41,0,0,1,.345.148.531.531,0,0,1,0,.411l-1.312,4.812a.807.807,0,0,1-.227.417.712.712,0,0,1-.425.151l-.072.255c.22-.031.432-.053.639-.072s.4-.026.587-.026.375.009.573.026.4.041.605.072l.068-.255a.421.421,0,0,1-.347-.151.562.562,0,0,1,0-.417l1.3-4.764h.657a1.557,1.557,0,0,1,.714.146.749.749,0,0,1,.356.41,1.114,1.114,0,0,1-.011.629,1.46,1.46,0,0,1-.4.664,1.933,1.933,0,0,1-.7.43,2.6,2.6,0,0,1-.9.151h-.108a.251.251,0,0,0-.118.027.112.112,0,0,0-.053.068.533.533,0,0,0,.079.3c.069.142.162.336.277.581s.245.544.378.906,1.118,3.932,1.243,4.422c.23-.022.428-.046.6-.063s.313-.024.432-.024c.079,0,.2.009.361.022s.364.037.605.065l.068-.255h-.046a.5.5,0,0,1-.332-.116c-.094-.078-1.021-3.338-1.089-3.489a4.28,4.28,0,0,1-.227-.537c-.076-.214-.166-.456-.27-.727s-.238-.572-.389-.9a3.493,3.493,0,0,0,1.011-.387,2.747,2.747,0,0,0,.736-.625,2.27,2.27,0,0,0,.413-.81,1.465,1.465,0,0,0-.013-1.024,1.126,1.126,0,0,0-.729-.561,4.908,4.908,0,0,0-1.434-.17Z" transform="translate(-8155.567 -11447.522)"/>
    <path id="Path_21239" data-name="Path 21239" d="M2232,182.64l-.068.245a.415.415,0,0,1,.345.149.534.534,0,0,1,0,.419l-1.314,4.834a.814.814,0,0,1-.234.417.7.7,0,0,1-.426.151l-.065.255c.219-.031.425-.053.635-.072s.4-.026.586-.026.375.009.574.026.4.041.6.072l.068-.255a.423.423,0,0,1-.347-.151.547.547,0,0,1,0-.417l1.319-4.834a.858.858,0,0,1,.227-.419.724.724,0,0,1,.429-.149l.065-.245a9.013,9.013,0,0,1-1.229.088c-.2,0-.39-.006-.585-.02s-.393-.037-.587-.068m3.557,0-.068.245a.446.446,0,0,1,.227.076.126.126,0,0,1,.039.148.508.508,0,0,1-.079.17.891.891,0,0,1-.14.166l-2.472,2.343a8.345,8.345,0,0,1,.616,1.245c.231.557.487,1.247.771,2.077.2-.029.367-.051.522-.064a3.311,3.311,0,0,1,.393-.024,5.092,5.092,0,0,1,.533.026c.173.017.343.039.513.063l.072-.255a.833.833,0,0,1-.292-.052.527.527,0,0,1-.2-.146,1.118,1.118,0,0,1-.133-.255c-.227-.6-.439-1.144-.646-1.638a11.464,11.464,0,0,0-.616-1.29l2.292-2.177a1.516,1.516,0,0,1,.422-.3,1.341,1.341,0,0,1,.432-.114l.068-.245c-.262.024-.492.046-.688.059s-.368.018-.5.018c-.151,0-.317,0-.5-.018s-.367-.035-.568-.059" transform="translate(-8177.776 -11447.452)"/>
    <path id="Path_21240" data-name="Path 21240" d="M2266.767,182.4a3.571,3.571,0,0,0-.889-.282,5.867,5.867,0,0,0-1.111-.1,4.3,4.3,0,0,0-1.5.255,2.945,2.945,0,0,0-1.085.679,2.247,2.247,0,0,0-.588,1,1.346,1.346,0,0,0,0,.83,1.233,1.233,0,0,0,.505.6,4.4,4.4,0,0,0,.984.465c.252.088.472.166.662.236a2.748,2.748,0,0,1,.465.223.56.56,0,0,1,.238.28.7.7,0,0,1,0,.417,1.03,1.03,0,0,1-.3.474,1.609,1.609,0,0,1-.572.327,2.471,2.471,0,0,1-.79.12,2.032,2.032,0,0,1-.926-.2,1.24,1.24,0,0,1-.548-.561,1.589,1.589,0,0,1-.118-.876h-.2c-.064.279-.118.5-.158.673l-.088.354c-.037.14-.081.29-.127.458s-.1.347-.159.544a4.719,4.719,0,0,0,1.009.327,5.681,5.681,0,0,0,1.135.114,4.743,4.743,0,0,0,1.251-.164,3.822,3.822,0,0,0,1.016-.437,2.959,2.959,0,0,0,.734-.64,2.224,2.224,0,0,0,.4-.769,1.306,1.306,0,0,0,0-.808,1.247,1.247,0,0,0-.5-.6,3.952,3.952,0,0,0-.975-.458c-.266-.09-.5-.173-.7-.245a3.009,3.009,0,0,1-.485-.221.584.584,0,0,1-.253-.275.566.566,0,0,1,0-.393,1.121,1.121,0,0,1,.5-.666,1.823,1.823,0,0,1,.967-.249,2.028,2.028,0,0,1,.862.175,1.255,1.255,0,0,1,.552.483,1.284,1.284,0,0,1,.164.734h.22c.059-.317.127-.629.2-.932s.147-.6.223-.891" transform="translate(-8201.339 -11446.967)"/>
    <path id="Path_21270" data-name="Path 21270" d="M1969.975,235.483c10.436-1.177,72.781-.845,78.376.1-2.632-1.616-23.926-1.854-38.431-1.886s-28.856.09-39.044.762c-.969.09-1.82.843-.9,1.024" transform="translate(-7974.471 -11487.27)"/>
  </g>
</svg>
