<svg xmlns="http://www.w3.org/2000/svg" width="72" height="48.648" viewBox="0 0 72 48.648">
  <g id="Group_8963" data-name="Group 8963" transform="translate(7293.31 11288.386)">
    <path id="Path_21208" data-name="Path 21208" d="M923.485,67.107,933,82.188c-.251.023-.384.045-.517.045-1.881,0-3.763-.005-5.644.01a.821.821,0,0,1-.8-.436q-4.349-6.924-8.717-13.835a.578.578,0,0,0-.6-.327,11.162,11.162,0,0,1-1.316,0c-.315-.017-.406.105-.4.405.012,1.129,0,2.257,0,3.386q0,5.08,0,10.159c0,.635,0,.635-.614.636-1.427,0-2.853-.008-4.28.011-.388.005-.5-.118-.5-.51q.015-18.484,0-36.968c0-.449.178-.508.552-.507,3.261.009,6.522-.022,9.783.008a11.665,11.665,0,0,1,10.44,16.97,11.21,11.21,0,0,1-6.591,5.751c-.088.031-.174.069-.309.122m-8.441-4.87c1.663,0,3.261.02,4.859,0a6.217,6.217,0,0,0,6.3-7,6.14,6.14,0,0,0-5.395-5.488c-1.87-.149-3.758-.064-5.638-.08-.04,0-.08.04-.125.065Z" transform="translate(-8154.308 -11326.845)" fill="#fff"/>
    <path id="Path_21209" data-name="Path 21209" d="M683.082,67.616V69q0,6.28,0,12.56c0,.633,0,.639-.661.64-1.411,0-2.823-.019-4.233,0-.41.007-.5-.144-.5-.518Q677.7,65.9,677.7,50.12c0-1.8.014-3.606,0-5.41,0-.362.1-.492.476-.49,3.387.014,6.775-.048,10.161.029A11.7,11.7,0,0,1,699.5,58.191a11.463,11.463,0,0,1-9.824,9.278,51.114,51.114,0,0,1-5.822.147c-.232,0-.464,0-.77,0m.017-5.356a56.772,56.772,0,0,0,6.005-.182,6.128,6.128,0,0,0,5.164-7.072,6.249,6.249,0,0,0-6.283-5.38c-1.521-.016-3.042-.007-4.562-.006a2.366,2.366,0,0,0-.324.046Z" transform="translate(-7971 -11326.812)" fill="#fff"/>
    <path id="Path_21210" data-name="Path 21210" d="M790.025,65.262l-12.93-48.578.11-.07c.293.194.59.382.879.582,1.829,1.267,3.651,2.545,5.489,3.8a1.32,1.32,0,0,1,.559.82q1.3,4.928,2.618,9.852,1.564,5.9,3.12,11.81a2.683,2.683,0,0,0,.273.737c.058-.228.114-.458.174-.686q1.895-7.105,3.789-14.21c.673-2.528,1.328-5.062,2.016-7.586a1.348,1.348,0,0,1,.481-.692c2.008-1.421,4.033-2.817,6.055-4.219a.737.737,0,0,1,.458-.136L790.188,65.254l-.162.008" transform="translate(-8049.569 -11305)" fill="#fff"/>
  </g>
</svg>
