<svg xmlns="http://www.w3.org/2000/svg" xmlns:xlink="http://www.w3.org/1999/xlink" width="121.924" height="33.025" viewBox="0 0 121.924 33.025">
  <defs>
    <clipPath id="clip-path">
      <rect id="Rectangle_4087" data-name="Rectangle 4087" width="121.924" height="33.025" fill="none"/>
    </clipPath>
  </defs>
  <g id="Group_8939" data-name="Group 8939" clip-path="url(#clip-path)">
    <path id="Path_21300" data-name="Path 21300" d="M151.994,130a10.171,10.171,0,0,1,.6,1.491c.384,1.193.682,2.769-.171,3.366-1.023.724-2.559-.383-2.559-.383a2.488,2.488,0,0,0,1.962.085c.64-.3.682-1.619.6-2.343a12.261,12.261,0,0,0-.427-2.216" transform="translate(-120.779 -104.768)" fill="#fff"/>
    <path id="Path_21301" data-name="Path 21301" d="M60.728,57.623a1.488,1.488,0,0,0-.7,2.894l.014,0a1.483,1.483,0,0,0,1.791-1.108A1.45,1.45,0,0,0,60.8,57.641l-.075-.018" transform="translate(-47.466 -46.413)" fill="#fff"/>
    <path id="Path_21302" data-name="Path 21302" d="M30.491,32.257c-1.791.128-4.009-1.321-4.691-1.832-1.791-1.363-2.687-2.173-2.687-2.173H23.07a69.664,69.664,0,0,1-7.206-8.223,2.874,2.874,0,0,0,1.919-.426,2.668,2.668,0,0,0,.853-1.619c.469.767,1.791,2.471,3.2,4.3,1.151,1.449,2.132,2.812,3.326,4.133a16.894,16.894,0,0,0,2.516,2.258A16.512,16.512,0,1,0,16.5,33.025a16.267,16.267,0,0,0,7.847-2c.128.085.256.128.384.213.81.469,3.71,2.215,5.97,1.662a2.827,2.827,0,0,0,2.3-2.471,2.707,2.707,0,0,1-2.515,1.831M13.817,21.393c-.043.043-.085.085-.128.085h-.043c-.043,0-.043-.043-.085-.043L11.94,19.263c0-.043-.043-.043-.043-.085l-.085-2.514a11,11,0,0,1-1.194-1.619C7.079,9.335,8.444,5.885,8.529,5.757c.043-.043.085-.085.128-.085a3.862,3.862,0,0,1,.682.085c1.279.3,3.8,1.363,6.482,5.155a19.743,19.743,0,0,1,1.194,1.917l2.3.98c.043,0,.043.042.085.042l1.365,2.343a.08.08,0,0,1,.016.112.083.083,0,0,1-.016.016c-.043.043-.085.085-.128.085l-2.559.3a2.2,2.2,0,0,1-.6,2.088,2.456,2.456,0,0,1-2.345.3Z" transform="translate(0 0)" fill="#fff"/>
    <path id="Path_21303" data-name="Path 21303" d="M224.735,47.8a2.43,2.43,0,0,1-.042.6,1.976,1.976,0,0,1-.128.383c-.043.085-.128.128-.17.171a.257.257,0,0,1-.171.043,3,3,0,0,1-.981-.256,15.949,15.949,0,0,1-1.578-.724c-.6-.341-1.237-.724-1.919-1.193a17.569,17.569,0,0,1-2-1.619,8.119,8.119,0,0,1-1.919.809,11.271,11.271,0,0,1-6.61-.341,6.708,6.708,0,0,1-2.729-1.96,8.693,8.693,0,0,1-1.621-3.2,16.985,16.985,0,0,1-.512-4.388,15.031,15.031,0,0,1,.554-4.3,8.9,8.9,0,0,1,1.706-3.281,7.423,7.423,0,0,1,2.857-2.088,9.76,9.76,0,0,1,4.009-.724,9.588,9.588,0,0,1,3.8.681A6.708,6.708,0,0,1,220,28.373a8.891,8.891,0,0,1,1.664,3.153,14.634,14.634,0,0,1,.554,4.3,21.2,21.2,0,0,1-.128,2.386,11.532,11.532,0,0,1-.469,2.173,8.293,8.293,0,0,1-.81,1.874,7.142,7.142,0,0,1-1.151,1.576,14.282,14.282,0,0,0,2,1.449,12.511,12.511,0,0,0,1.407.767c.384.17.682.3.853.383a2.316,2.316,0,0,1,.469.256,1,1,0,0,1,.213.426,1.494,1.494,0,0,1,.128.682m-5.288-11.844a14.667,14.667,0,0,0-.3-3.153,7.653,7.653,0,0,0-1.024-2.556,4.706,4.706,0,0,0-1.876-1.662,6.5,6.5,0,0,0-2.9-.6,5.959,5.959,0,0,0-2.9.639,5.791,5.791,0,0,0-1.919,1.747,6.9,6.9,0,0,0-1.066,2.556,14.137,14.137,0,0,0-.3,3.067,15.216,15.216,0,0,0,.3,3.238,7.615,7.615,0,0,0,.981,2.556,4.707,4.707,0,0,0,1.876,1.662,6.564,6.564,0,0,0,2.942.6,6.252,6.252,0,0,0,2.942-.639,5.067,5.067,0,0,0,1.919-1.747,6.852,6.852,0,0,0,1.024-2.556A18.823,18.823,0,0,0,219.447,35.957Z" transform="translate(-164.692 -20.738)" fill="#fff"/>
    <path id="Path_21304" data-name="Path 21304" d="M326.9,68.307a.318.318,0,0,1-.043.213.454.454,0,0,1-.213.128.85.85,0,0,1-.384.085c-.17,0-.341.043-.554.043a2.444,2.444,0,0,1-.6-.043.66.66,0,0,1-.341-.085.586.586,0,0,1-.171-.128.32.32,0,0,1-.043-.213V66.474a8.3,8.3,0,0,1-2.345,1.917,5.323,5.323,0,0,1-2.345.6,5.472,5.472,0,0,1-2.345-.469,3.758,3.758,0,0,1-1.535-1.278,5.051,5.051,0,0,1-.853-1.874,11.391,11.391,0,0,1-.256-2.6V54.332a.32.32,0,0,1,.043-.213.463.463,0,0,1,.213-.17,1.017,1.017,0,0,1,.384-.085c.171,0,.384-.043.64-.043a2.82,2.82,0,0,1,.64.043.853.853,0,0,1,.384.085.427.427,0,0,1,.213.17.318.318,0,0,1,.043.213V62.47a8.121,8.121,0,0,0,.171,1.96,3.3,3.3,0,0,0,.554,1.236,2.875,2.875,0,0,0,.938.809,3.056,3.056,0,0,0,3.241-.383,9.84,9.84,0,0,0,2-2V54.332a.318.318,0,0,1,.043-.213.462.462,0,0,1,.213-.17,1.019,1.019,0,0,1,.384-.085c.17,0,.384-.043.64-.043a2.822,2.822,0,0,1,.64.043.853.853,0,0,1,.384.085.426.426,0,0,1,.213.17.325.325,0,0,1,.085.213V68.307Z" transform="translate(-253.767 -43.374)" fill="#fff"/>
    <path id="Path_21305" data-name="Path 21305" d="M406.346,59.5a.963.963,0,0,1-.981,1.108h-9.211a10.144,10.144,0,0,0,.213,2.088,4.193,4.193,0,0,0,.768,1.576,4.278,4.278,0,0,0,1.407,1.022,5.332,5.332,0,0,0,2.132.341,7.517,7.517,0,0,0,1.791-.17,8.831,8.831,0,0,0,1.365-.383,7.031,7.031,0,0,0,.938-.383,1.286,1.286,0,0,1,.554-.17.383.383,0,0,1,.213.043.582.582,0,0,1,.128.17,2.693,2.693,0,0,1,.085.3c0,.128.043.3.043.469v.341c0,.085-.043.17-.043.256s-.043.128-.085.213c-.043.043-.085.128-.128.171a1.9,1.9,0,0,1-.512.3,9.815,9.815,0,0,1-1.066.383,10.442,10.442,0,0,1-1.535.341,12.969,12.969,0,0,1-1.876.128,9.22,9.22,0,0,1-3.028-.468,6.386,6.386,0,0,1-2.175-1.406,5.887,5.887,0,0,1-1.321-2.386,11.688,11.688,0,0,1,0-6.56,7.4,7.4,0,0,1,1.321-2.429,5.477,5.477,0,0,1,2.133-1.534,7.308,7.308,0,0,1,2.772-.554,6.922,6.922,0,0,1,2.815.511,5.342,5.342,0,0,1,1.919,1.406,5.772,5.772,0,0,1,1.108,2.088,9.99,9.99,0,0,1,.341,2.556V59.5Zm-2.559-.767a4.491,4.491,0,0,0-.9-3.153,3.456,3.456,0,0,0-2.815-1.15,3.989,3.989,0,0,0-1.663.341,3.768,3.768,0,0,0-1.194.937,4.731,4.731,0,0,0-.768,1.363,6.8,6.8,0,0,0-.3,1.619h7.634Z" transform="translate(-317.177 -42.147)" fill="#fff"/>
    <path id="Path_21306" data-name="Path 21306" d="M483.824,63.994a4.528,4.528,0,0,1-.383,1.917,3.969,3.969,0,0,1-1.109,1.406,4.473,4.473,0,0,1-1.749.852,7.352,7.352,0,0,1-2.218.3,7.2,7.2,0,0,1-1.407-.128,6.965,6.965,0,0,1-1.194-.3,9.361,9.361,0,0,1-.9-.383,4.487,4.487,0,0,1-.554-.341.723.723,0,0,1-.256-.426,3.171,3.171,0,0,1-.085-.767,1.917,1.917,0,0,1,.043-.511.8.8,0,0,1,.085-.341.592.592,0,0,1,.128-.17.319.319,0,0,1,.213-.042,1.181,1.181,0,0,1,.512.213c.213.128.512.3.81.469.34.17.725.3,1.151.469a5.337,5.337,0,0,0,1.535.213,5.394,5.394,0,0,0,1.194-.128,2.184,2.184,0,0,0,.9-.426,1.825,1.825,0,0,0,.6-.681,2.365,2.365,0,0,0,.213-.98,1.493,1.493,0,0,0-.3-.98,3.376,3.376,0,0,0-.81-.724,8.988,8.988,0,0,0-1.109-.554l-1.279-.511c-.426-.17-.853-.383-1.279-.6a4.377,4.377,0,0,1-1.109-.809,3.734,3.734,0,0,1-.81-1.15,3.591,3.591,0,0,1-.3-1.576,3.99,3.99,0,0,1,.3-1.576,3.576,3.576,0,0,1,.938-1.321,4.364,4.364,0,0,1,1.577-.9,6.926,6.926,0,0,1,2.217-.341,9.721,9.721,0,0,1,1.109.085,6.159,6.159,0,0,1,1.023.213,7.285,7.285,0,0,1,.768.3,3.048,3.048,0,0,1,.469.3.958.958,0,0,1,.213.213c.043.043.043.128.085.213,0,.085.043.17.043.3s.043.256.043.426a1.592,1.592,0,0,1-.043.468.5.5,0,0,1-.085.3.584.584,0,0,1-.128.17.256.256,0,0,1-.171.043.7.7,0,0,1-.384-.17,3.231,3.231,0,0,0-.682-.383c-.3-.128-.6-.256-.981-.383a4.043,4.043,0,0,0-1.279-.17,4.76,4.76,0,0,0-1.151.128,2.087,2.087,0,0,0-.81.426,1.392,1.392,0,0,0-.469.639,1.728,1.728,0,0,0-.171.809,1.7,1.7,0,0,0,.3,1.022,3.376,3.376,0,0,0,.81.725,7.217,7.217,0,0,0,1.151.554l1.279.511c.426.17.9.383,1.321.6a4.325,4.325,0,0,1,1.151.809,3.542,3.542,0,0,1,.81,1.108,5.635,5.635,0,0,1,.214,1.576" transform="translate(-381.99 -42.853)" fill="#fff"/>
    <path id="Path_21307" data-name="Path 21307" d="M550.834,49.249a3.451,3.451,0,0,1-.043.724.574.574,0,0,1-.213.383.824.824,0,0,1-.384.213,2.112,2.112,0,0,1-.554.17c-.213.043-.426.085-.682.128a4.137,4.137,0,0,1-.725.042,4.954,4.954,0,0,1-1.876-.3,2.949,2.949,0,0,1-1.279-.852,3.763,3.763,0,0,1-.725-1.491,7.672,7.672,0,0,1-.213-2.088V38.044h-6.951v7.8a4.156,4.156,0,0,0,.427,2.173,1.6,1.6,0,0,0,1.535.724,2.583,2.583,0,0,0,.64-.085l.512-.128.384-.128a.794.794,0,0,1,.3-.085.156.156,0,0,1,.128.043l.128.128a2.7,2.7,0,0,1,.085.3c0,.128.043.3.043.469v.426c0,.085-.043.213-.043.3a.326.326,0,0,1-.085.213.748.748,0,0,1-.171.213,2.392,2.392,0,0,1-.341.213,2.116,2.116,0,0,1-.554.17c-.213.042-.427.085-.682.128a4.136,4.136,0,0,1-.725.043,4.955,4.955,0,0,1-1.876-.3,2.95,2.95,0,0,1-1.279-.852,3.763,3.763,0,0,1-.725-1.491,7.677,7.677,0,0,1-.213-2.088v-8.18h-1.962a.41.41,0,0,1-.384-.256,1.87,1.87,0,0,1-.129-.809,2.676,2.676,0,0,1,.128-.852c.043-.085.085-.17.171-.17a.386.386,0,0,1,.213-.043h1.919V32.59a.382.382,0,0,1,.043-.213.46.46,0,0,1,.213-.17.854.854,0,0,1,.384-.085c.17,0,.384-.043.64-.043a2.821,2.821,0,0,1,.64.043.853.853,0,0,1,.384.085.425.425,0,0,1,.213.17.318.318,0,0,1,.042.213v3.323h6.951v-4a.319.319,0,0,1,.042-.213.363.363,0,0,1,.213-.128.853.853,0,0,1,.384-.085,4.835,4.835,0,0,1,1.279,0,2.735,2.735,0,0,1,.384.085.935.935,0,0,1,.213.128.319.319,0,0,1,.043.213v4h3.583a.32.32,0,0,1,.213.043c.043.043.128.085.171.17a.8.8,0,0,1,.085.341c0,.128.043.3.043.511a1.865,1.865,0,0,1-.128.809.4.4,0,0,1-.341.256h-3.583v7.8a4.155,4.155,0,0,0,.427,2.173,1.564,1.564,0,0,0,1.535.724,3.3,3.3,0,0,0,.64-.085l.512-.128.384-.128a1.681,1.681,0,0,1,.256-.085.256.256,0,0,1,.171.042c.043.043.085.085.085.128a2.74,2.74,0,0,1,.085.3,1.583,1.583,0,0,0,0,.469" transform="translate(-428.914 -25.339)" fill="#fff"/>
  </g>
</svg>
