<svg xmlns="http://www.w3.org/2000/svg" width="60.151" height="60.032" viewBox="0 0 60.151 60.032">
  <g id="Group_1775" data-name="Group 1775" transform="translate(6592.751 11298.969)">
    <path id="Path_21185" data-name="Path 21185" d="M1378.249,66.061V22.347c.1-.671.159-1.35.3-2.013,1.524-7.207,5.806-11.846,12.943-13.794.85-.232,1.733-.343,2.6-.51h3.656a2.529,2.529,0,0,0,.453.135,16.664,16.664,0,0,1,10.217,4.856,16.948,16.948,0,0,1,5.114,12.219c.036,2.312.006,4.625.006,6.938V30.9c.324,0,.583,0,.841,0,2.84.033,5.695-.1,8.518.137a16.383,16.383,0,0,1,12.733,7.7,17.511,17.511,0,0,1,2.7,11.41,17.172,17.172,0,0,1-17.26,15.912q-21.41-.01-42.82,0m5.389-30.676c.882-.19.84.372.813.928-.009.182,0,.365,0,.547,0,2.817-.008,5.634.011,8.45,0,.2.18.56.3.572.615.059,1.238.027,1.873.027.028-.27.049-.461.072-.686a1.283,1.283,0,0,1,.194.107,3.239,3.239,0,0,0,5.024-1.073,6.631,6.631,0,0,0-.044-5.316,2.674,2.674,0,0,0-2.313-1.64,3.315,3.315,0,0,0-2.9.838c0-.33,0-.526,0-.723,0-1.033-.006-2.067,0-3.1,0-.29-.036-.542-.4-.543-.865,0-1.73,0-2.63,0Zm20.282,17.585c-.176-.109-.277-.165-.371-.23a3.32,3.32,0,0,0-5.04,1.607,7.274,7.274,0,0,0-.085,4.248,3.027,3.027,0,0,0,3.237,2.457,2.744,2.744,0,0,0,2.214-.86c.041.277.071.483.1.7h2.174V48.661c-.57,0-1.094.023-1.616-.007-.465-.027-.641.116-.627.612.035,1.206.011,2.413.011,3.7m-13.252-32.284v.692c0,3.022.011,6.044-.012,9.066,0,.515.1.763.665.692a4.165,4.165,0,0,1,.973,0c.539.059.745-.1.727-.691-.042-1.357-.035-2.718.008-4.076a4.61,4.61,0,0,1,.307-1.47,1.266,1.266,0,0,1,1.381-.77,1.2,1.2,0,0,1,1.059,1.155,6.072,6.072,0,0,1,.036.789q0,2.16,0,4.32c0,.347.05.7.474.717.863.032,1.727.01,2.613.01v-1.7l-.765-.055v-.61c0-1.217.022-2.434-.007-3.651a2.62,2.62,0,0,0-2.979-2.762,2.921,2.921,0,0,0-2.143.936v-.708c0-1.035.016-2.069-.016-3.1-.006-.19-.2-.529-.317-.535-.921-.045-1.845-.025-2.752-.025-.221,1.511-.165,1.652.748,1.78M1418.01,53.1a2.546,2.546,0,0,1-.256-.141,3.326,3.326,0,0,0-5.419,1.8,7.794,7.794,0,0,0-.061,3.495,3.14,3.14,0,0,0,3.948,2.709,9.249,9.249,0,0,0,1.686-.636c.1.16.217.535.373.553a16.937,16.937,0,0,0,1.9.029V60.15q0-3.256,0-6.511c0-1.356,0-1.337-1.387-1.362-.543-.01-.951.03-.788.824m-29.051.951v.732c0,1.866-.008,3.731.015,5.6,0,.18.181.5.3.514.619.052,1.245.024,1.916.024,0-1.461-.046-2.839.019-4.212a7.021,7.021,0,0,1,.43-2.052,1.259,1.259,0,0,1,1.475-.7,1.207,1.207,0,0,1,.96,1.178,8.29,8.29,0,0,1,.038.85c0,1.4,0,2.8,0,4.2,0,.338.014.7.458.719.846.028,1.694.008,2.57.008V59.243l-.709-.1c0-1.412.022-2.791-.006-4.168a2.562,2.562,0,0,0-2.619-2.8,2.879,2.879,0,0,0-2.463.885c-.208-.258-.387-.7-.61-.72a25.187,25.187,0,0,0-2.539-.034V54l.769.048m17.583-25.046-.7.2a4.049,4.049,0,0,1-2.739-.082,1.3,1.3,0,0,1-.876-1.5c1.37,0,2.747-.01,4.125,0,1.454.014,1.463.075,1.386-1.512-.114-2.345-1.155-3.593-3.252-3.854-2.028-.252-3.917.391-4.5,2.483a8.543,8.543,0,0,0-.255,2.574,3.526,3.526,0,0,0,1.633,3.153,6.112,6.112,0,0,0,4.828.4.577.577,0,0,0,.327-.412c.042-.459.015-.924.015-1.449m10.144,13.557c1.333,0,2.666.013,4,0,1.614-.019,1.657.356,1.556-1.667a3.445,3.445,0,0,0-3.184-3.648,3.807,3.807,0,0,0-4.449,2.323,6.685,6.685,0,0,0-.13,3.716,3.242,3.242,0,0,0,2.654,2.61,9.3,9.3,0,0,0,2.473.153c1.478-.11,1.555-.258,1.47-1.743,0-.078-.024-.155-.042-.268-.156.038-.292.06-.418.1a4.615,4.615,0,0,1-2.575.117,1.647,1.647,0,0,1-1.352-1.693m-20.622,0c1.369,0,2.707,0,4.044,0,1.61-.006,1.627.264,1.511-1.655-.132-2.179-1.173-3.344-3.129-3.655-2.227-.355-4.056.649-4.587,2.554a6.208,6.208,0,0,0,.013,3.658,3.648,3.648,0,0,0,1.14,1.734,5.543,5.543,0,0,0,5.055.6.521.521,0,0,0,.31-.36c.039-.454.015-.914.015-1.443a4.949,4.949,0,0,1-3,.272,1.631,1.631,0,0,1-1.368-1.7m-6.843-13.172h-.59c-.244,0-.488.01-.731,0-.714-.039-1.083-.305-1.122-1.014-.073-1.313-.068-2.632-.057-3.948,0-.11.278-.3.437-.312.556-.039,1.116-.015,1.677-.015V22.363c-.375,0-.715,0-1.054,0-1.277-.014-1.062.134-1.081-1.046-.007-.46,0-.921,0-1.4h-2.277v.637q0,3.772,0,7.545c0,1.955.792,2.819,2.727,3,.242.023.486.032.729.032,1.627,0,1.627,0,1.443-1.628,0-.016-.026-.03-.1-.109m18.612,14.982c-.43,0-.812,0-1.193,0-1.019-.009-1.389-.373-1.4-1.4-.007-.973,0-1.945.006-2.918,0-.317,0-.633,0-1.02h2.1V37.407c-.341,0-.64.006-.939,0-1.33-.032-1.161.2-1.171-1.217,0-.419,0-.838,0-1.281h-2.166c-.035.073-.067.108-.067.143-.006,2.857-.043,5.714,0,8.57a2.071,2.071,0,0,0,1.619,2.173,26.09,26.09,0,0,0,3.2.287Zm5.739,0c-.434,0-.814,0-1.2,0-1.015-.009-1.405-.379-1.422-1.393-.016-.933,0-1.866,0-2.8,0-.358,0-.716,0-1.16h2.126V37.413c-.555,0-1.076-.012-1.6,0-.383.012-.557-.127-.541-.529a12.691,12.691,0,0,0-.015-1.581c-.013-.153-.215-.4-.345-.414-.6-.045-1.2-.02-1.769-.02-.05.118-.078.154-.078.19-.006,2.86-.036,5.72,0,8.58a2.167,2.167,0,0,0,1.821,2.215,23.043,23.043,0,0,0,3.02.191Zm12.821-5.839a3.267,3.267,0,0,0-.051-.744c-.049-.143-.208-.349-.323-.352-.921-.029-1.844-.016-2.763-.016v1.588l.943.088v6.829c.547,0,1.03-.019,1.51.006.437.022.615-.123.6-.586-.026-1.052-.021-2.107,0-3.159.039-1.844.671-3.146,2.579-2.954a.509.509,0,0,0,.374-.33c.042-.536.018-1.078.018-1.628a2.659,2.659,0,0,0-2.892,1.258m-18.3,22.39c.719,0,1.344-.007,1.968,0,.352.005.375-.208.375-.479q-.006-3.831,0-7.662c0-.357-.1-.524-.482-.5a8.26,8.26,0,0,1-1.216,0c-.493-.044-.675.113-.659.634.037,1.174.011,2.351.011,3.527v4.482m-23.639,0c.62,0,1.146-.03,1.667.009s.657-.151.652-.652c-.023-2.451-.011-4.9-.015-7.355,0-.2-.03-.393-.05-.636-.617,0-1.183.021-1.747-.007-.409-.021-.519.141-.515.529.017,1.54.007,3.08.008,4.62v3.493m1.152-12.055a1.2,1.2,0,0,0-1.276,1.237,1.221,1.221,0,0,0,1.2,1.2,1.15,1.15,0,0,0,1.272-1.215,1.135,1.135,0,0,0-1.2-1.222m23.624,0a1.189,1.189,0,0,0-1.23,1.215,1.206,1.206,0,0,0,1.231,1.227,1.163,1.163,0,0,0,1.236-1.258,1.133,1.133,0,0,0-1.237-1.184" transform="translate(-7971 -11305)" fill="#fff"/>
    <path id="Path_21186" data-name="Path 21186" d="M1398.081,109.722v-1.614c.9,0,1.765,0,2.63,0,.367,0,.4.253.4.543,0,1.033,0,2.067,0,3.1v.723a3.314,3.314,0,0,1,2.9-.838,2.674,2.674,0,0,1,2.313,1.64,6.633,6.633,0,0,1,.044,5.316,3.239,3.239,0,0,1-5.024,1.073,1.308,1.308,0,0,0-.195-.107c-.023.225-.044.415-.072.686-.635,0-1.259.032-1.873-.027-.123-.012-.3-.371-.3-.572-.019-2.817-.012-5.633-.011-8.45,0-.182,0-.365,0-.547.027-.556.068-1.119-.813-.928m2.9,6.146c.048.452.077.795.124,1.135a3.451,3.451,0,0,0,.133.592,1.648,1.648,0,0,0,3.136-.03,5.613,5.613,0,0,0,.014-3.062,1.568,1.568,0,0,0-1.6-1.235,1.548,1.548,0,0,0-1.559,1.208,13.947,13.947,0,0,0-.246,1.392" transform="translate(-7985.443 -11379.338)"/>
    <path id="Path_21187" data-name="Path 21187" d="M1457.253,167.189c0-1.289.024-2.5-.011-3.7-.014-.5.162-.639.627-.612.522.03,1.047.007,1.617.007v12.224h-2.174c-.031-.212-.062-.418-.1-.7a2.744,2.744,0,0,1-2.214.86,3.027,3.027,0,0,1-3.237-2.457,7.276,7.276,0,0,1,.085-4.248,3.321,3.321,0,0,1,5.04-1.607c.094.065.194.121.371.23m-3.443,3.605.041.009c.023.384.03.77.074,1.152a2.387,2.387,0,0,0,.172.579,1.615,1.615,0,0,0,3.021-.076,5.91,5.91,0,0,0,.012-3.179,1.607,1.607,0,0,0-3.072-.034,12.676,12.676,0,0,0-.249,1.55" transform="translate(-8024.332 -11419.219)"/>
    <path id="Path_21188" data-name="Path 21188" d="M1421.657,55.176c-.912-.128-.969-.268-.748-1.78.907,0,1.831-.02,2.753.025.119.006.311.345.317.535.032,1.033.015,2.068.016,3.1v.709a2.923,2.923,0,0,1,2.143-.937,2.62,2.62,0,0,1,2.979,2.762c.029,1.216.007,2.434.007,3.651,0,.2,0,.394,0,.61l.765.055v1.7c-.887,0-1.751.022-2.613-.009-.425-.016-.474-.37-.474-.717q0-2.16,0-4.32a6.092,6.092,0,0,0-.036-.789,1.2,1.2,0,0,0-1.058-1.155,1.266,1.266,0,0,0-1.381.77,4.6,4.6,0,0,0-.307,1.47c-.043,1.358-.051,2.718-.008,4.076.019.587-.189.75-.727.691a4.172,4.172,0,0,0-.973,0c-.563.071-.669-.177-.666-.692.023-3.022.012-6.044.012-9.066Z" transform="translate(-8001.988 -11339.49)"/>
    <path id="Path_21189" data-name="Path 21189" d="M1508.745,176.728c-.163-.795.245-.834.788-.824,1.386.025,1.387.006,1.387,1.362q0,3.256,0,6.511v.763a16.928,16.928,0,0,1-1.9-.029c-.157-.018-.272-.393-.373-.553a9.253,9.253,0,0,1-1.686.636,3.14,3.14,0,0,1-3.947-2.709,7.789,7.789,0,0,1,.062-3.495,3.326,3.326,0,0,1,5.419-1.8,2.638,2.638,0,0,0,.256.141m.021,3.544a15.476,15.476,0,0,0-.312-1.627,1.461,1.461,0,0,0-1.51-1.09,1.488,1.488,0,0,0-1.513,1.092,5.127,5.127,0,0,0,.023,3.286,1.446,1.446,0,0,0,1.5,1.016,1.4,1.4,0,0,0,1.485-1.022,15.829,15.829,0,0,0,.331-1.654" transform="translate(-8061.734 -11428.628)"/>
    <path id="Path_21190" data-name="Path 21190" d="M1415.6,177.684l-.769-.048v-1.708a25.267,25.267,0,0,1,2.539.034c.222.023.4.462.61.72a2.88,2.88,0,0,1,2.463-.885,2.562,2.562,0,0,1,2.619,2.8c.028,1.378.005,2.756.005,4.168l.709.1v1.668c-.875,0-1.723.02-2.57-.008-.444-.014-.458-.381-.458-.719,0-1.4,0-2.8,0-4.2a8.091,8.091,0,0,0-.038-.85,1.206,1.206,0,0,0-.959-1.178,1.259,1.259,0,0,0-1.474.7,6.993,6.993,0,0,0-.43,2.052c-.065,1.373-.019,2.751-.019,4.212-.671,0-1.3.028-1.916-.024-.117-.01-.3-.333-.3-.513-.022-1.866-.014-3.731-.015-5.6v-.732" transform="translate(-7997.644 -11428.631)"/>
    <path id="Path_21191" data-name="Path 21191" d="M1464.115,72.364c0,.524.027.99-.016,1.449a.575.575,0,0,1-.326.412,6.111,6.111,0,0,1-4.828-.4,3.527,3.527,0,0,1-1.633-3.153,8.551,8.551,0,0,1,.255-2.574c.579-2.092,2.468-2.736,4.5-2.483,2.1.261,3.138,1.509,3.252,3.854.077,1.587.068,1.526-1.386,1.512-1.377-.013-2.755,0-4.125,0a1.3,1.3,0,0,0,.876,1.5,4.049,4.049,0,0,0,2.739.082l.7-.2m-1.171-3.059c-.021-.75-.056-1.465-.766-1.877a1.635,1.635,0,0,0-1.787.034,1.781,1.781,0,0,0-.652,1.843Z" transform="translate(-8028.572 -11348.358)"/>
    <path id="Path_21192" data-name="Path 21192" d="M1513.24,126.035a1.648,1.648,0,0,0,1.352,1.693,4.617,4.617,0,0,0,2.575-.117c.127-.044.262-.066.419-.1.018.114.037.191.042.268.085,1.485.008,1.633-1.47,1.743a9.294,9.294,0,0,1-2.473-.152,3.241,3.241,0,0,1-2.654-2.61,6.685,6.685,0,0,1,.13-3.716,3.807,3.807,0,0,1,4.449-2.323,3.445,3.445,0,0,1,3.184,3.648c.1,2.024.058,1.648-1.556,1.667-1.332.016-2.664,0-4,0m3.216-1.624a1.8,1.8,0,0,0-.692-1.915,1.663,1.663,0,0,0-1.843.009,1.917,1.917,0,0,0-.7,1.905Z" transform="translate(-8067.553 -11388.472)"/>
    <path id="Path_21193" data-name="Path 21193" d="M1437.3,126.038a1.632,1.632,0,0,0,1.368,1.7,4.95,4.95,0,0,0,3.005-.272c0,.53.023.989-.015,1.443a.522.522,0,0,1-.31.36,5.543,5.543,0,0,1-5.055-.6,3.646,3.646,0,0,1-1.14-1.734,6.208,6.208,0,0,1-.013-3.658c.531-1.9,2.36-2.909,4.587-2.554,1.956.311,3,1.477,3.128,3.655.116,1.918.1,1.649-1.511,1.655-1.338,0-2.675,0-4.044,0m3.262-1.618c-.012-.82-.061-1.567-.816-1.961a1.66,1.66,0,0,0-1.84.105,1.788,1.788,0,0,0-.591,1.856Z" transform="translate(-8012.235 -11388.477)"/>
    <path id="Path_21194" data-name="Path 21194" d="M1405.764,66.59c.075.079.1.093.1.109.185,1.629.185,1.631-1.442,1.628-.243,0-.487-.009-.729-.032-1.935-.182-2.723-1.046-2.727-3q-.007-3.772,0-7.545v-.637h2.276c0,.483-.006.944,0,1.4.02,1.18-.2,1.033,1.081,1.046.34,0,.679,0,1.054,0V61.3c-.561,0-1.121-.024-1.677.015-.159.011-.436.2-.437.312-.01,1.316-.016,2.635.057,3.948.039.709.408.976,1.122,1.014.243.013.487,0,.731,0h.591" transform="translate(-7987.542 -11342.199)"/>
    <path id="Path_21195" data-name="Path 21195" d="M1474.13,121.761v1.71a25.99,25.99,0,0,1-3.2-.287,2.071,2.071,0,0,1-1.619-2.172c-.046-2.856-.009-5.714,0-8.57,0-.035.032-.07.067-.143h2.165c0,.443,0,.862,0,1.281.01,1.421-.159,1.185,1.171,1.217.3.007.6,0,.939,0v1.628h-2.1c0,.387,0,.7,0,1.02,0,.973-.013,1.945-.006,2.918.008,1.024.378,1.388,1.4,1.4.381,0,.763,0,1.193,0" transform="translate(-8037.296 -11382.39)"/>
    <path id="Path_21196" data-name="Path 21196" d="M1495.223,121.651v1.678a23.042,23.042,0,0,1-3.02-.191,2.167,2.167,0,0,1-1.821-2.215c-.032-2.86,0-5.72,0-8.58,0-.036.029-.072.078-.19.567,0,1.17-.025,1.768.02.13.01.332.261.345.414a12.738,12.738,0,0,1,.016,1.581c-.016.4.157.542.541.529.521-.016,1.043,0,1.6,0V116.3H1492.6v1.16c0,.933-.014,1.867,0,2.8.017,1.013.407,1.384,1.422,1.393.381,0,.761,0,1.2,0" transform="translate(-8052.65 -11382.278)"/>
    <path id="Path_21197" data-name="Path 21197" d="M1547.009,122.134a2.66,2.66,0,0,1,2.893-1.258c0,.55.024,1.091-.018,1.628a.509.509,0,0,1-.374.33c-1.908-.192-2.54,1.11-2.579,2.954-.022,1.053-.028,2.107,0,3.159.011.464-.167.608-.6.586-.481-.024-.964-.005-1.51-.005V122.7l-.943-.088v-1.588c.92,0,1.842-.013,2.763.016.115,0,.274.209.323.352a3.261,3.261,0,0,1,.051.744" transform="translate(-8091.615 -11388.6)"/>
    <path id="Path_21198" data-name="Path 21198" d="M1488.044,184.851v-4.482c0-1.176.026-2.352-.011-3.526-.017-.521.165-.679.659-.634a8.227,8.227,0,0,0,1.216,0c.383-.023.483.145.482.5-.01,2.554-.006,5.108,0,7.662,0,.271-.023.484-.375.479-.624-.009-1.249,0-1.968,0" transform="translate(-8050.95 -11428.928)"/>
    <path id="Path_21199" data-name="Path 21199" d="M1401.063,184.864v-3.493c0-1.54.01-3.08-.007-4.62,0-.387.105-.549.515-.529.564.029,1.13.007,1.747.007.02.243.05.439.05.636,0,2.452-.009,4.9.015,7.355,0,.5-.141.691-.652.652s-1.047-.009-1.667-.009" transform="translate(-7987.609 -11428.941)"/>
    <path id="Path_21200" data-name="Path 21200" d="M1401.9,163.666a1.135,1.135,0,0,1,1.2,1.222,1.151,1.151,0,0,1-1.272,1.216,1.222,1.222,0,0,1-1.2-1.2,1.2,1.2,0,0,1,1.276-1.237" transform="translate(-7987.294 -11419.798)"/>
    <path id="Path_21201" data-name="Path 21201" d="M1488.96,163.671a1.133,1.133,0,0,1,1.237,1.184,1.163,1.163,0,0,1-1.237,1.258,1.206,1.206,0,0,1-1.23-1.227,1.189,1.189,0,0,1,1.23-1.215" transform="translate(-8050.731 -11419.802)"/>
    <path id="Path_21202" data-name="Path 21202" d="M1408.756,129.7a14.046,14.046,0,0,1,.246-1.392,1.548,1.548,0,0,1,1.559-1.208,1.568,1.568,0,0,1,1.6,1.235,5.616,5.616,0,0,1-.014,3.062,1.648,1.648,0,0,1-3.136.03,3.418,3.418,0,0,1-.133-.592c-.048-.34-.076-.683-.124-1.135" transform="translate(-7993.217 -11393.169)" fill="#fff"/>
    <path id="Path_21203" data-name="Path 21203" d="M1460.05,184.878a12.674,12.674,0,0,1,.248-1.55,1.607,1.607,0,0,1,3.072.034,5.908,5.908,0,0,1-.012,3.179,1.615,1.615,0,0,1-3.021.076,2.392,2.392,0,0,1-.173-.579c-.044-.382-.051-.767-.074-1.152l-.041-.009" transform="translate(-8030.572 -11433.303)" fill="#fff"/>
    <path id="Path_21204" data-name="Path 21204" d="M1515.013,185.006a15.831,15.831,0,0,1-.331,1.654,1.4,1.4,0,0,1-1.485,1.022,1.447,1.447,0,0,1-1.5-1.016,5.128,5.128,0,0,1-.023-3.286,1.488,1.488,0,0,1,1.513-1.092,1.461,1.461,0,0,1,1.51,1.09,15.507,15.507,0,0,1,.313,1.627" transform="translate(-8067.981 -11433.36)" fill="#fff"/>
    <path id="Path_21205" data-name="Path 21205" d="M1469.414,73.624h-3.206a1.781,1.781,0,0,1,.652-1.843,1.635,1.635,0,0,1,1.787-.034c.71.412.746,1.127.766,1.877" transform="translate(-8035.042 -11352.677)" fill="#fff"/>
    <path id="Path_21206" data-name="Path 21206" d="M1522.839,128.625H1519.6a1.917,1.917,0,0,1,.7-1.905,1.663,1.663,0,0,1,1.843-.009,1.8,1.8,0,0,1,.692,1.915" transform="translate(-8073.935 -11392.687)" fill="#fff"/>
    <path id="Path_21207" data-name="Path 21207" d="M1447,128.642h-3.247a1.788,1.788,0,0,1,.591-1.856,1.66,1.66,0,0,1,1.84-.105c.755.394.8,1.142.816,1.961" transform="translate(-8018.672 -11392.698)" fill="#fff"/>
  </g>
</svg>
