<svg xmlns="http://www.w3.org/2000/svg" xmlns:xlink="http://www.w3.org/1999/xlink" width="145.039" height="39.192" viewBox="0 0 145.039 39.192">
  <defs>
    <clipPath id="clip-path">
      <rect id="Rectangle_4092" data-name="Rectangle 4092" width="145.039" height="39.192" fill="none"/>
    </clipPath>
  </defs>
  <g id="Group_8943" data-name="Group 8943" transform="translate(0 0)">
    <g id="Group_8941" data-name="Group 8941" transform="translate(0 0)" clip-path="url(#clip-path)">
      <path id="Path_21308" data-name="Path 21308" d="M310.211,35.287c-.185-7.733,6.456-14.109,13.781-14.287a14.6,14.6,0,0,1,14.661,14.3,14.539,14.539,0,0,1-14.959,14.212c-7.087-.3-13.663-6.476-13.483-14.222m14.114,11.778a11.81,11.81,0,1,0-11.768-12.3,11.866,11.866,0,0,0,11.768,12.3" transform="translate(-193.614 -13.105)" fill="#fff" stroke="#fff" stroke-width="1"/>
      <path id="Path_21309" data-name="Path 21309" d="M276.684,23.831l2.226,1.527-6.666,10.094a10.38,10.38,0,0,1,4.847.629,7.511,7.511,0,0,1,4.561,5.719,7,7,0,0,1-1.311,6.227,8.024,8.024,0,0,1-14.12-2.932,9.6,9.6,0,0,1,1.205-7.2c2.684-4.548,5.659-8.91,8.679-13.24.179-.257.36-.513.578-.824M273.91,49.016a5.564,5.564,0,1,0,.029-11.128,5.564,5.564,0,1,0-.029,11.128" transform="translate(-166.006 -14.874)" fill="#fff" stroke="#fff" stroke-width="1"/>
      <path id="Path_21310" data-name="Path 21310" d="M220.745,35.864a4.923,4.923,0,0,1,.451-2.713c1.452-2.495,2.8-5.052,4.183-7.585.073-.133.136-.272.233-.466h-9.3V22.975h12.472l-4.968,10.116c.389.118.763.2,1.115.343a9.864,9.864,0,0,1,5.988,5.761,7.956,7.956,0,0,1-.733,6.7,8.759,8.759,0,0,1-6.848,4.883,9.626,9.626,0,0,1-8.147-2.292,4.483,4.483,0,0,1-1.369-2,1.091,1.091,0,0,1,.273-1.287,1.137,1.137,0,0,1,1.36.3,8.89,8.89,0,0,0,3.871,2.332,8.735,8.735,0,0,0,6.874-.729,5.136,5.136,0,0,0,2.575-4.252,7.851,7.851,0,0,0-.371-3.293,5.176,5.176,0,0,0-4.129-3.392,23.637,23.637,0,0,0-2.987-.305c-.168-.015-.338,0-.546,0" transform="translate(-133.405 -14.34)" fill="#fff" stroke="#fff" stroke-width="1"/>
      <path id="Path_21311" data-name="Path 21311" d="M184.12,24.152h9.334V26.78H181.372V10.793h-2.5c.372-.544.665-.993.986-1.421.055-.073.227-.077.345-.08.36-.01.721,0,1.142,0V.1h12.113V2.19h-9.323V9.143H189.7v1.622H184.12Z" transform="translate(-111.642 -0.061)" fill="#fff" stroke="#fff" stroke-width="1"/>
      <path id="Path_21312" data-name="Path 21312" d="M10.116,26.765,0,.01C.9.01,1.734,0,2.563.028c.113,0,.264.226.318.376Q5.332,7.149,7.764,13.9c.773,2.141,1.542,4.283,2.347,6.522.374-1.078.72-2.062,1.056-3.05q2.9-8.5,5.782-17c.088-.258.193-.381.49-.372.751.022,1.5.007,2.336.007L10.116,26.765" transform="translate(0 0)" fill="#fff" stroke="#fff" stroke-width="1"/>
      <path id="Path_21313" data-name="Path 21313" d="M136.152.079h1.894V19.457a5.136,5.136,0,0,0,8.02,4.008,5.316,5.316,0,0,0,2.168-4.262c.041-6.177.016-12.354.016-18.532V.087h1.688c.009.165.026.33.026.5q0,9.478,0,18.957c0,2.755-2.407,6.113-4.858,6.76a7.028,7.028,0,0,1-8.461-4.37,7.545,7.545,0,0,1-.493-2.561c-.041-6.3-.022-12.607-.021-18.91,0-.109.012-.218.022-.378" transform="translate(-84.961 -0.049)" fill="#fff" stroke="#fff" stroke-width="1"/>
      <path id="Path_21314" data-name="Path 21314" d="M62.227.041,72.27,26.757H69.406L62.222,6.109l-.1.006-2.232,6.908c-.555-.916-1.391-.869-2.274-.793L62.227.041" transform="translate(-35.959 -0.026)" fill="#fff" stroke="#fff" stroke-width="1"/>
      <path id="Path_21315" data-name="Path 21315" d="M104.29.107h2.026V24.8h7.026v1.984H104.29Z" transform="translate(-65.092 -0.066)" fill="#fff" stroke="#fff" stroke-width="1"/>
      <path id="Path_21316" data-name="Path 21316" d="M43.6,52.453,47.7,41.189a2.068,2.068,0,0,0,2.283,1.02c-.18.557-.349,1.1-.53,1.635-.916,2.708-1.842,5.412-2.744,8.125a.593.593,0,0,1-.692.5c-.784-.036-1.572-.011-2.41-.011" transform="translate(-27.216 -25.708)" fill="#fff" stroke="#fff" stroke-width="1"/>
      <path id="Path_21317" data-name="Path 21317" d="M23.489,84.235h.933v5.727h-.568V85.405l-.084-.011L22.5,89.959h-.609l-1.273-4.588-.063.007V89.96l-.569.031V84.214a4.281,4.281,0,0,0,.528,0c.309-.038.428.091.5.389.335,1.332.7,2.657,1.052,3.983.027.1.076.2.142.371l1.282-4.719" transform="translate(-12.472 -52.555)" fill="#fff"/>
      <path id="Path_21318" data-name="Path 21318" d="M104.491,84.209c.7,0,1.359-.042,2.013.012a1.3,1.3,0,0,1,1.24.99,1.425,1.425,0,0,1-.571,1.69,1.631,1.631,0,0,1,.8,2.056,1.469,1.469,0,0,1-1.565,1.022c-.6,0-1.2,0-1.794-.006a.6.6,0,0,1-.124-.035Zm.591,5.1c.513,0,.984.03,1.449-.008a.9.9,0,0,0,.854-.948c.026-.551-.187-.906-.725-.979a11.93,11.93,0,0,0-1.579-.015Zm.012-2.62c.527-.042,1-.071,1.462-.119s.609-.4.615-.806-.136-.758-.609-.811-.959-.075-1.468-.113Z" transform="translate(-65.217 -52.549)" fill="#fff"/>
      <path id="Path_21319" data-name="Path 21319" d="M158.785,84.926v1.786h2.606v.668h-2.579v1.992h2.869v.639h-3.536V84.3h3.447v.623Z" transform="translate(-98.705 -52.617)" fill="#fff"/>
      <path id="Path_21320" data-name="Path 21320" d="M63.91,92.934h.551c.269.605.525.754,1.078.631.442-.1.663-.593.636-1.426-.027,0-.066-.024-.08-.013a1.233,1.233,0,0,1-2.182-.643,3.478,3.478,0,0,1,.1-2.437,1.277,1.277,0,0,1,2-.631l.712-.182a1.718,1.718,0,0,1,.057.283c-.006,1.4.049,2.807-.043,4.2-.092,1.379-1,1.609-2.05,1.365-.548-.127-.756-.495-.783-1.149m2.28-2.6c0-.28-.009-.533,0-.784.021-.48-.322-.664-.681-.777a.685.685,0,0,0-.89.425,2.983,2.983,0,0,0-.032,2.3c.223.565.752.634,1.228.248.494-.4.349-.933.372-1.408" transform="translate(-39.783 -55.011)" fill="#fff"/>
      <path id="Path_21321" data-name="Path 21321" d="M87.715,92.926H88.3c.257.6.509.745,1.072.635.458-.09.686-.587.666-1.481a3.678,3.678,0,0,1-.63.425,1.2,1.2,0,0,1-1.518-.686,3.416,3.416,0,0,1-.06-2.7,1.3,1.3,0,0,1,2.068-.7l.714-.2c0,1.59.062,3.1-.021,4.6A1.445,1.445,0,0,1,88.569,94.1c-.5-.156-.737-.472-.854-1.179M90.053,90.3c0-.236,0-.441,0-.645a.89.89,0,0,0-.757-.908.724.724,0,0,0-.892.633,6.716,6.716,0,0,0,0,1.983c.124.7.8.8,1.331.311.443-.411.288-.922.321-1.374" transform="translate(-54.663 -55.005)" fill="#fff"/>
      <path id="Path_21322" data-name="Path 21322" d="M56.631,37.088a1.625,1.625,0,0,1-1.638-1.6,1.651,1.651,0,0,1,1.625-1.624A1.589,1.589,0,0,1,58.255,35.5a1.571,1.571,0,0,1-1.624,1.587" transform="translate(-34.324 -21.139)" fill="#fff" stroke="#fff" stroke-width="1"/>
      <path id="Path_21323" data-name="Path 21323" d="M144.484,90.073c-.267-.074-.624.18-.667-.28a3.435,3.435,0,0,1-.733.366,1.157,1.157,0,0,1-1.437-.961,5.26,5.26,0,0,1-.071-2.034c.255-1.323,1.016-1.661,2.263-1.116V84.326h.645Zm-.538-2.15-.094-.021q0-.33,0-.66a.811.811,0,0,0-.677-.863.742.742,0,0,0-.925.591,2.958,2.958,0,0,0-.012,1.982,1.166,1.166,0,0,0,.561.612.641.641,0,0,0,.829-.365,7.952,7.952,0,0,0,.318-1.276" transform="translate(-88.32 -52.631)" fill="#fff"/>
      <path id="Path_21324" data-name="Path 21324" d="M171.537,88.336l.613-.118v5.771h-.538V92.116c-.062-.01-.1-.029-.117-.017a1.239,1.239,0,0,1-2.186-.637,3.526,3.526,0,0,1,.08-2.389,1.42,1.42,0,0,1,2.148-.737m.057,1.916c0-.235-.011-.471,0-.706.029-.5-.328-.692-.7-.8a.7.7,0,0,0-.9.478,3.019,3.019,0,0,0-.026,2.2c.232.619.763.7,1.27.272.481-.409.329-.937.356-1.437" transform="translate(-105.566 -54.982)" fill="#fff"/>
      <path id="Path_21325" data-name="Path 21325" d="M123.86,89.96c.062-.993-.23-1.3-1.052-1.138a.876.876,0,0,0-.489.319c-.236.32-.215.336-.651.3a1.051,1.051,0,0,1,1-1.2,5.971,5.971,0,0,1,.662-.008c.642.013,1.07.291,1.108.916.066,1.093.018,2.192.018,3.37l-.637-.133.039-.105a5.816,5.816,0,0,1-.96.322,1.124,1.124,0,0,1-1.34-.768,1.312,1.312,0,0,1,.675-1.631,3.078,3.078,0,0,1,.807-.236,5.682,5.682,0,0,1,.824-.008m.041.5a4.85,4.85,0,0,0-1.249.2,1.085,1.085,0,0,0-.479.71.765.765,0,0,0,.325.6,1.1,1.1,0,0,0,1.338-.451,4.673,4.673,0,0,0,.064-1.05" transform="translate(-75.824 -55.067)" fill="#fff"/>
      <path id="Path_21326" data-name="Path 21326" d="M36.308,89.886c.089-.948-.188-1.25-1.017-1.1-.181.032-.453.167-.486.3-.106.441-.394.347-.724.335a1.863,1.863,0,0,1,.036-.367c.223-.714.85-.989,1.915-.849.558.073.941.556.963,1.318.028.957.007,1.915.007,2.966l-.708-.131.034-.108a5.888,5.888,0,0,1-.958.318,1.136,1.136,0,0,1-1.362-.8,1.317,1.317,0,0,1,.674-1.588,3.208,3.208,0,0,1,.8-.244,6.622,6.622,0,0,1,.826-.048m-.031.543a7.231,7.231,0,0,0-1.172.177.714.714,0,0,0-.466.914c.084.407.389.5.751.466.59-.048,1.161-.321.887-1.556" transform="translate(-21.187 -55.029)" fill="#fff"/>
      <path id="Path_21327" data-name="Path 21327" d="M56.209,89.94c.041-.822-.065-1.053-.483-1.13a.88.88,0,0,0-1.168.641h-.582a.748.748,0,0,1-.009-.181c.175-.82.66-1.095,1.819-1.037a1.122,1.122,0,0,1,1.089,1.231c.039.988.009,1.978.009,3.061l-.706-.133.036-.105a5.781,5.781,0,0,1-.961.318,1.129,1.129,0,0,1-1.354-.812,1.289,1.289,0,0,1,.6-1.537,5.516,5.516,0,0,1,1.213-.31,2.451,2.451,0,0,1,.492-.005m-.018.567a2.716,2.716,0,0,0-.679.011c-.291.08-.667.162-.811.376a1.031,1.031,0,0,0-.044.887c.192.381.631.293.973.179.562-.188.657-.465.56-1.453" transform="translate(-33.604 -55.065)" fill="#fff"/>
      <path id="Path_21328" data-name="Path 21328" d="M182.491,92.725c-.252-.093-.646.246-.65-.324a3.4,3.4,0,0,1-.686.4,1.105,1.105,0,0,1-1.466-1.123c-.038-1.02-.009-2.043-.009-3.094h.636c0,.512,0,1.028,0,1.543s-.009,1.041.032,1.558a.566.566,0,0,0,.851.493.942.942,0,0,0,.663-.966c-.029-.863-.008-1.729-.008-2.625h.635Z" transform="translate(-112.14 -55.291)" fill="#fff"/>
      <path id="Path_21329" data-name="Path 21329" d="M199.3,91.7c.27-.989.517-1.828.723-2.676.114-.467.324-.686.834-.493-.511,1.632-1.008,3.276-1.545,4.907-.275.835-.521.968-1.336.879V93.73a1.064,1.064,0,0,0,.89-1.517c-.378-1.221-.762-2.44-1.157-3.7h.672l.918,3.19" transform="translate(-123.402 -55.212)" fill="#fff"/>
      <path id="Path_21330" data-name="Path 21330" d="M132.65,92.441h-.606V88.317h.568l.068.35a.663.663,0,0,0,.119-.08,1.187,1.187,0,0,1,1.376-.319,1.108,1.108,0,0,1,.659,1.149c.011.99,0,1.981,0,3.008h-.584q0-1.121,0-2.248c0-.189.011-.379-.006-.566-.05-.552-.279-.834-.655-.827a1.077,1.077,0,0,0-.94.949c-.006.894,0,1.788,0,2.709" transform="translate(-82.414 -55.032)" fill="#fff"/>
      <path id="Path_21331" data-name="Path 21331" d="M81.178,92.471h-.643v-1.8c0-.315,0-.63,0-.945-.01-.648-.2-.93-.627-.919a1.12,1.12,0,0,0-.949,1c-.006.878,0,1.755,0,2.656H78.38V88.348h.535l.071.305a3.154,3.154,0,0,1,.824-.412c.8-.132,1.283.226,1.35,1.108.079,1.029.018,2.068.018,3.121" transform="translate(-48.92 -55.059)" fill="#fff"/>
      <path id="Path_21332" data-name="Path 21332" d="M44.589,88.311h.536c.018.118.037.235.055.354.028-.005.067,0,.081-.017a1.216,1.216,0,0,1,1.4-.4,1.084,1.084,0,0,1,.681,1.136c.01,1,0,2.007,0,3.043h-.584V90.756c0-.331,0-.662,0-.993-.009-.637-.236-.98-.646-.979a1.09,1.09,0,0,0-.96,1.032c0,.864,0,1.727,0,2.619h-.569Z" transform="translate(-27.83 -55.033)" fill="#fff"/>
      <path id="Path_21333" data-name="Path 21333" d="M194.368,86.833v.516l-.541.062c0,.875-.022,1.751.01,2.626.014.4.111.434.613.492v.491c-.964.154-1.19-.021-1.2-.96-.014-.864,0-1.728,0-2.619l-.448-.093c-.008-.144-.017-.3-.028-.479l.456-.09V85.8h.589v1l.559.04" transform="translate(-120.313 -53.549)" fill="#fff"/>
      <path id="Path_21334" data-name="Path 21334" d="M116.78,92.481h-.556V88.362h.571c.015.109.031.224.055.4.3-.391.622-.652,1.14-.492v.666a.972.972,0,0,0-1.185,1.14c.064.749.012,1.507.009,2.261a.893.893,0,0,1-.033.14" transform="translate(-72.54 -55.066)" fill="#fff"/>
      <rect id="Rectangle_4088" data-name="Rectangle 4088" width="0.53" height="4.119" transform="translate(27.943 33.282)" fill="#fff"/>
      <rect id="Rectangle_4089" data-name="Rectangle 4089" width="0.533" height="4.119" transform="translate(71.332 33.294)" fill="#fff"/>
      <rect id="Rectangle_4090" data-name="Rectangle 4090" width="0.525" height="0.718" transform="translate(71.343 31.678)" fill="#fff"/>
      <rect id="Rectangle_4091" data-name="Rectangle 4091" width="0.542" height="0.701" transform="translate(27.937 31.697)" fill="#fff"/>
    </g>
  </g>
</svg>
