<?xml version="1.0" encoding="UTF-8"?>
<svg width="752pt" height="752pt" version="1.1" viewBox="0 0 752 752" xmlns="http://www.w3.org/2000/svg">
 <path d="m176.95 167.2c-3.8477 0.03125-7.293 2.3828-8.7227 5.957-1.4258 3.5703-0.55469 7.6484 2.2109 10.324l192.25 192.25-192.25 192.24c-2.0898 1.6875-3.3672 4.1836-3.5078 6.8672-0.14453 2.6836 0.85937 5.3008 2.7617 7.1992 1.8984 1.9023 4.5156 2.9023 7.1992 2.7617 2.6836-0.14453 5.1797-1.418 6.8672-3.5078l192.24-192.24 192.25 192.24c1.6875 2.0898 4.1836 3.3672 6.8672 3.5078 2.6836 0.14453 5.3008-0.85938 7.1992-2.7578 1.8984-1.9023 2.9023-4.5195 2.7617-7.2031-0.14453-2.6836-1.418-5.1797-3.5078-6.8672l-192.25-192.24 192.25-192.25c2.8047-2.7109 3.6602-6.8633 2.1562-10.465-1.5078-3.5977-5.0664-5.9062-8.9648-5.8125-2.4727 0.097656-4.8125 1.1602-6.5117 2.957l-192.25 192.25-192.24-192.25c-1.7734-1.8711-4.2305-2.9375-6.8086-2.957z" fill-rule="evenodd"/>
</svg>
