<svg id="b" xmlns="http://www.w3.org/2000/svg" width="79.393" height="65.475" viewBox="0 0 79.393 65.475">
  <g id="c">
    <g id="Group_8991" data-name="Group 8991">
      <g id="Group_8989" data-name="Group 8989">
        <path id="Path_21336" data-name="Path 21336" d="M115.057,53.637v1.124a6.722,6.722,0,0,1-2,5.058,7.113,7.113,0,0,1-5.162,1.936,7.615,7.615,0,0,1-5.59-2.2,7.256,7.256,0,0,1-2.216-5.36,7.519,7.519,0,0,1,7.641-7.6,7.619,7.619,0,0,1,3.727.926,6.855,6.855,0,0,1,2.622,2.467l-2.457,1.416a3.873,3.873,0,0,0-1.571-1.457,4.885,4.885,0,0,0-2.342-.561,4.6,4.6,0,0,0-3.424,1.363,4.706,4.706,0,0,0-1.342,3.445,4.554,4.554,0,0,0,1.363,3.4,4.923,4.923,0,0,0,3.612,1.342,4.819,4.819,0,0,0,2.758-.738,3.673,3.673,0,0,0,1.488-2.03h-4.413v-2.54h7.307Z" transform="translate(-83.707 -38.973)" fill="#f8f8f8"/>
        <path id="Path_21337" data-name="Path 21337" d="M211.974,62.961,209.028,57.9h-2.175v5.058H203.98V48.39h5.829a4.834,4.834,0,0,1,4.85,4.83,4.426,4.426,0,0,1-.771,2.508,4.817,4.817,0,0,1-2.039,1.738l3.226,5.5h-3.1Zm-5.122-11.886v4.31h2.956a1.825,1.825,0,0,0,1.395-.635,2.186,2.186,0,0,0,.583-1.53A2.145,2.145,0,0,0,211.2,51.7a1.843,1.843,0,0,0-1.395-.625Z" transform="translate(-170.593 -40.47)" fill="#f8f8f8"/>
        <path id="Path_21338" data-name="Path 21338" d="M321.946,48.39a6.645,6.645,0,0,1,5.007,2.1,7.694,7.694,0,0,1,0,10.367,6.642,6.642,0,0,1-5.007,2.1H316.16V48.39Zm0,11.824a4.039,4.039,0,0,0,3.08-1.259,5.122,5.122,0,0,0,0-6.557,4.039,4.039,0,0,0-3.08-1.259h-2.914v9.076h2.914Z" transform="translate(-264.411 -40.47)" fill="#f8f8f8"/>
        <path id="Path_21339" data-name="Path 21339" d="M56.276,162.21a6.645,6.645,0,0,1,5.007,2.1,7.694,7.694,0,0,1,0,10.367,6.642,6.642,0,0,1-5.007,2.1H50.49V162.21Zm0,11.824a4.039,4.039,0,0,0,3.08-1.259,5.122,5.122,0,0,0,0-6.557,4.039,4.039,0,0,0-3.08-1.259H53.363v9.076h2.913Z" transform="translate(-42.226 -135.66)" fill="#f8f8f8"/>
        <path id="Path_21340" data-name="Path 21340" d="M144.033,174.043h6.141v2.748H141.16V162.22h8.909v2.748h-6.036v3.1h5.516v2.706h-5.516v3.269Z" transform="translate(-118.055 -135.668)" fill="#f8f8f8"/>
        <path id="Path_21341" data-name="Path 21341" d="M209.706,175.585a6.514,6.514,0,0,1-3.643-.967,5.173,5.173,0,0,1-2.082-2.634l2.457-1.437a3.272,3.272,0,0,0,3.35,2.228,2.884,2.884,0,0,0,1.769-.437,1.375,1.375,0,0,0-.126-2.3,10.621,10.621,0,0,0-2.457-.926,15.123,15.123,0,0,1-1.655-.583,7.19,7.19,0,0,1-1.354-.781,3.181,3.181,0,0,1-1.031-1.239,4.055,4.055,0,0,1-.354-1.748,3.9,3.9,0,0,1,1.4-3.154,5.1,5.1,0,0,1,3.383-1.177,5.62,5.62,0,0,1,3.112.864,5.807,5.807,0,0,1,2.092,2.4l-2.414,1.395a2.909,2.909,0,0,0-2.789-1.874,2.2,2.2,0,0,0-1.4.406,1.282,1.282,0,0,0-.511,1.051,1.32,1.32,0,0,0,.573,1.113,8,8,0,0,0,2.2.926q.665.209,1.01.322t.936.354a5.867,5.867,0,0,1,.917.447,7.269,7.269,0,0,1,.738.561,2.877,2.877,0,0,1,.635.728,4.14,4.14,0,0,1,.375.905,4.051,4.051,0,0,1,.156,1.156,3.909,3.909,0,0,1-1.468,3.206,5.891,5.891,0,0,1-3.82,1.187Z" transform="translate(-170.593 -134.171)" fill="#f8f8f8"/>
        <path id="Path_21342" data-name="Path 21342" d="M46.169,22.491V2.873H2.873v43.3h43.3V26.55h2.874V49.043H0V0H49.043V22.491Z" fill="#f8f8f8"/>
        <path id="Path_21343" data-name="Path 21343" d="M327.057,167.467v1.124a6.722,6.722,0,0,1-2,5.058,7.112,7.112,0,0,1-5.162,1.936,7.615,7.615,0,0,1-5.59-2.2,7.256,7.256,0,0,1-2.216-5.361,7.519,7.519,0,0,1,7.641-7.6,7.619,7.619,0,0,1,3.727.926,6.855,6.855,0,0,1,2.622,2.467l-2.457,1.416a3.873,3.873,0,0,0-1.571-1.457,4.885,4.885,0,0,0-2.342-.561,4.6,4.6,0,0,0-3.424,1.363,4.706,4.706,0,0,0-1.342,3.445,4.554,4.554,0,0,0,1.363,3.4,4.923,4.923,0,0,0,3.612,1.342,4.819,4.819,0,0,0,2.758-.738,3.673,3.673,0,0,0,1.488-2.03h-4.413v-2.54h7.307Z" transform="translate(-261.007 -134.171)" fill="#f8f8f8"/>
        <path id="Path_21344" data-name="Path 21344" d="M424.429,162.21H427.3v14.571h-2.185l-6.244-8.909v8.909H416V162.21h2.183l6.248,8.876V162.21Z" transform="translate(-347.909 -135.66)" fill="#f8f8f8"/>
      </g>
      <g id="Group_8990" data-name="Group 8990" transform="translate(0 54.086)">
        <path id="Path_21345" data-name="Path 21345" d="M0,330.443H1.6v2.625l-.1.854h.1a1.834,1.834,0,0,1,.684-.648,2.267,2.267,0,0,1,1.147-.268,2.619,2.619,0,0,1,1.093.237,2.929,2.929,0,0,1,.917.66,3.114,3.114,0,0,1,.629,1.008,3.471,3.471,0,0,1,.232,1.282,3.433,3.433,0,0,1-.232,1.282,3.169,3.169,0,0,1-.629,1.008,2.91,2.91,0,0,1-.917.66,2.593,2.593,0,0,1-1.093.237,2.263,2.263,0,0,1-1.147-.268,1.809,1.809,0,0,1-.684-.648H1.5v.72H0V330.44Zm3.1,7.462a1.521,1.521,0,0,0,.6-.123,1.6,1.6,0,0,0,.507-.342,1.631,1.631,0,0,0,.354-.537,1.938,1.938,0,0,0,0-1.418,1.684,1.684,0,0,0-.354-.537,1.577,1.577,0,0,0-.507-.342,1.521,1.521,0,0,0-.6-.123,1.6,1.6,0,0,0-.6.116,1.525,1.525,0,0,0-.507.336,1.648,1.648,0,0,0-.354.537,2,2,0,0,0,0,1.44,1.684,1.684,0,0,0,.354.537,1.508,1.508,0,0,0,.507.336,1.606,1.606,0,0,0,.6.116Z" transform="translate(0 -330.44)" fill="#f8f8f8"/>
        <path id="Path_21346" data-name="Path 21346" d="M41.916,353.011,39.4,347.32h1.82l1.514,3.627h.085l1.453-3.627h1.782l-3.75,8.623H40.583l1.331-2.932Z" transform="translate(-32.951 -344.557)" fill="#f8f8f8"/>
        <path id="Path_21347" data-name="Path 21347" d="M101.33,352.522a3.46,3.46,0,0,1-1.044-.146,2.887,2.887,0,0,1-.794-.385,2.489,2.489,0,0,1-.568-.55,2.587,2.587,0,0,1-.354-.629L100,350.2a1.55,1.55,0,0,0,.557.691,1.4,1.4,0,0,0,.776.226,1.327,1.327,0,0,0,.7-.159.454.454,0,0,0,.257-.378.468.468,0,0,0-.214-.4,2.233,2.233,0,0,0-.738-.275l-.843-.183a3.016,3.016,0,0,1-.579-.195,2.242,2.242,0,0,1-.543-.342,1.719,1.719,0,0,1-.4-.5,1.408,1.408,0,0,1-.159-.684,1.578,1.578,0,0,1,.19-.782,1.769,1.769,0,0,1,.519-.579,2.466,2.466,0,0,1,.776-.367,3.476,3.476,0,0,1,.959-.128,3.368,3.368,0,0,1,1.527.336,2.06,2.06,0,0,1,.989,1.069l-1.38.561a1.059,1.059,0,0,0-.5-.512,1.524,1.524,0,0,0-.66-.159,1.259,1.259,0,0,0-.6.141.415.415,0,0,0-.257.36.368.368,0,0,0,.214.331,2.477,2.477,0,0,0,.579.219l.917.219a2.65,2.65,0,0,1,1.362.7,1.624,1.624,0,0,1,.445,1.142,1.591,1.591,0,0,1-.183.745,2,2,0,0,1-.519.629,2.561,2.561,0,0,1-.805.434,3.237,3.237,0,0,1-1.044.159Z" transform="translate(-82.436 -343.579)" fill="#f8f8f8"/>
        <path id="Path_21348" data-name="Path 21348" d="M139.973,352.451l.1-.854h-.1a1.834,1.834,0,0,1-.684.648,2.267,2.267,0,0,1-1.147.268,2.619,2.619,0,0,1-1.093-.237,2.93,2.93,0,0,1-.917-.66,3.113,3.113,0,0,1-.629-1.008,3.65,3.65,0,0,1,0-2.563,3.142,3.142,0,0,1,.629-1.008,2.911,2.911,0,0,1,.917-.66,2.589,2.589,0,0,1,1.093-.237,2.263,2.263,0,0,1,1.147.268,1.809,1.809,0,0,1,.684.648h.1v-.72h1.5v8.623h-1.6v-2.5Zm-1.5-1.416a1.606,1.606,0,0,0,.6-.116,1.525,1.525,0,0,0,.507-.336,1.649,1.649,0,0,0,.354-.537,2,2,0,0,0,0-1.44,1.685,1.685,0,0,0-.354-.537,1.508,1.508,0,0,0-.507-.336,1.606,1.606,0,0,0-.6-.116,1.515,1.515,0,0,0-.6.123,1.6,1.6,0,0,0-.507.342,1.63,1.63,0,0,0-.354.537,1.938,1.938,0,0,0,0,1.417,1.683,1.683,0,0,0,.354.537,1.577,1.577,0,0,0,.507.342,1.522,1.522,0,0,0,.6.123Z" transform="translate(-113.129 -343.57)" fill="#f8f8f8"/>
        <path id="Path_21349" data-name="Path 21349" d="M185.719,352.523h-.1a2.011,2.011,0,0,1-.758.714,2.211,2.211,0,0,1-1.087.262,2.033,2.033,0,0,1-1.691-.7,2.893,2.893,0,0,1-.555-1.856V347.32h1.6v3.432a1.377,1.377,0,0,0,.286.959,1.08,1.08,0,0,0,.836.311,1.168,1.168,0,0,0,.579-.141,1.344,1.344,0,0,0,.427-.378,1.7,1.7,0,0,0,.268-.561,2.544,2.544,0,0,0,.092-.691V347.32h1.6V353.3h-1.5v-.782Z" transform="translate(-151.817 -344.557)" fill="#f8f8f8"/>
        <path id="Path_21350" data-name="Path 21350" d="M226.23,351.674h-.1a2.7,2.7,0,0,1-.678.586,1.912,1.912,0,0,1-1.02.244,2.475,2.475,0,0,1-.872-.152,2.287,2.287,0,0,1-.715-.421,1.883,1.883,0,0,1-.476-.648,1.981,1.981,0,0,1-.17-.83,1.888,1.888,0,0,1,.183-.836,1.921,1.921,0,0,1,.512-.642,2.311,2.311,0,0,1,.776-.409,3.228,3.228,0,0,1,.971-.141,4.224,4.224,0,0,1,.964.092,4.5,4.5,0,0,1,.622.19v-.183a.977.977,0,0,0-.378-.787,1.431,1.431,0,0,0-.941-.311,1.76,1.76,0,0,0-1.4.7l-1.16-.794a3.148,3.148,0,0,1,2.6-1.2,3.093,3.093,0,0,1,2.125.653,2.461,2.461,0,0,1,.733,1.936v3.591h-1.576v-.635Zm0-1.8a3.375,3.375,0,0,0-.579-.214,2.566,2.566,0,0,0-.653-.08,1.381,1.381,0,0,0-.885.25.763.763,0,0,0-.311.617.69.69,0,0,0,.3.586,1.129,1.129,0,0,0,.691.219,1.469,1.469,0,0,0,.586-.116,1.432,1.432,0,0,0,.458-.306,1.338,1.338,0,0,0,.293-.44,1.353,1.353,0,0,0,.1-.519Z" transform="translate(-185.83 -343.562)" fill="#f8f8f8"/>
        <path id="Path_21351" data-name="Path 21351" d="M264.2,346.325h1.5v.83h.1a1.509,1.509,0,0,1,.293-.4,2.1,2.1,0,0,1,.409-.319,2.31,2.31,0,0,1,.488-.219,1.708,1.708,0,0,1,.519-.083,1.883,1.883,0,0,1,.543.069,1.417,1.417,0,0,1,.385.177l-.427,1.429a1.574,1.574,0,0,0-.324-.116,1.914,1.914,0,0,0-.434-.043,1.361,1.361,0,0,0-.6.129,1.3,1.3,0,0,0-.458.362,1.7,1.7,0,0,0-.293.547,2.168,2.168,0,0,0-.1.681v2.946h-1.6v-5.984Z" transform="translate(-220.956 -343.562)" fill="#f8f8f8"/>
        <path id="Path_21352" data-name="Path 21352" d="M296.24,350.86a3.359,3.359,0,0,1-1.118,1.185,3.1,3.1,0,0,1-1.715.452,3.32,3.32,0,0,1-1.264-.237,3.018,3.018,0,0,1-1.674-1.674,3.327,3.327,0,0,1-.239-1.277,3.257,3.257,0,0,1,.232-1.228,3.11,3.11,0,0,1,.647-1.013,3.148,3.148,0,0,1,.984-.691,3.016,3.016,0,0,1,1.252-.257,3.284,3.284,0,0,1,1.282.237,2.62,2.62,0,0,1,.941.66,2.857,2.857,0,0,1,.575,1,3.866,3.866,0,0,1,.195,1.246v.147a.813.813,0,0,0-.011.134.676.676,0,0,0-.013.134h-4.506a1.69,1.69,0,0,0,.2.629,1.519,1.519,0,0,0,.378.44,1.5,1.5,0,0,0,.494.257,1.943,1.943,0,0,0,.55.08,1.559,1.559,0,0,0,.91-.25,1.833,1.833,0,0,0,.568-.629l1.331.66Zm-1.453-2.321a1.034,1.034,0,0,0-.1-.354,1.241,1.241,0,0,0-.268-.367,1.4,1.4,0,0,0-.44-.281,1.616,1.616,0,0,0-.629-.11,1.467,1.467,0,0,0-.9.293,1.55,1.55,0,0,0-.55.818Z" transform="translate(-242.725 -343.553)" fill="#f8f8f8"/>
        <path id="Path_21353" data-name="Path 21353" d="M333.8,330.443h1.6v2.625l-.1.854h.1a1.834,1.834,0,0,1,.684-.648,2.267,2.267,0,0,1,1.147-.268,2.619,2.619,0,0,1,1.093.237,2.929,2.929,0,0,1,.917.66,3.113,3.113,0,0,1,.628,1.008,3.471,3.471,0,0,1,.232,1.282,3.432,3.432,0,0,1-.232,1.282,3.169,3.169,0,0,1-.628,1.008,2.91,2.91,0,0,1-.917.66,2.594,2.594,0,0,1-1.093.237,2.263,2.263,0,0,1-1.147-.268,1.809,1.809,0,0,1-.684-.648h-.1v.72h-1.5V330.44Zm3.1,7.462a1.521,1.521,0,0,0,.6-.123,1.594,1.594,0,0,0,.507-.342,1.631,1.631,0,0,0,.354-.537,1.938,1.938,0,0,0,0-1.418,1.683,1.683,0,0,0-.354-.537,1.577,1.577,0,0,0-.507-.342,1.521,1.521,0,0,0-.6-.123,1.6,1.6,0,0,0-.6.116,1.526,1.526,0,0,0-.507.336,1.647,1.647,0,0,0-.353.537,2,2,0,0,0,0,1.44,1.684,1.684,0,0,0,.353.537,1.508,1.508,0,0,0,.507.336,1.606,1.606,0,0,0,.6.116Z" transform="translate(-279.164 -330.44)" fill="#f8f8f8"/>
        <path id="Path_21354" data-name="Path 21354" d="M379.657,346.13a3.363,3.363,0,0,1,1.277.237,2.959,2.959,0,0,1,1.661,1.668,3.377,3.377,0,0,1,.239,1.282,3.341,3.341,0,0,1-.239,1.282,2.959,2.959,0,0,1-1.661,1.668,3.328,3.328,0,0,1-1.277.237,3.365,3.365,0,0,1-1.277-.237,2.959,2.959,0,0,1-1.661-1.668,3.557,3.557,0,0,1,0-2.563,2.959,2.959,0,0,1,1.661-1.668A3.327,3.327,0,0,1,379.657,346.13Zm0,4.9a1.579,1.579,0,0,0,.593-.116,1.524,1.524,0,0,0,.507-.336,1.612,1.612,0,0,0,.349-.537,2.1,2.1,0,0,0,0-1.44,1.57,1.57,0,0,0-.349-.537,1.524,1.524,0,0,0-.507-.336,1.579,1.579,0,0,0-.593-.116,1.6,1.6,0,0,0-.6.116,1.532,1.532,0,0,0-.5.336,1.612,1.612,0,0,0-.349.537,2.1,2.1,0,0,0,0,1.44,1.572,1.572,0,0,0,.349.537,1.532,1.532,0,0,0,.5.336A1.557,1.557,0,0,0,379.657,351.027Z" transform="translate(-314.858 -343.562)" fill="#f8f8f8"/>
        <path id="Path_21355" data-name="Path 21355" d="M423.5,351.674h-.1a2.7,2.7,0,0,1-.678.586,1.913,1.913,0,0,1-1.02.244,2.475,2.475,0,0,1-.872-.152,2.287,2.287,0,0,1-.715-.421,1.884,1.884,0,0,1-.476-.648,1.981,1.981,0,0,1-.17-.83,1.887,1.887,0,0,1,.183-.836,1.92,1.92,0,0,1,.512-.642,2.312,2.312,0,0,1,.776-.409,3.228,3.228,0,0,1,.971-.141,4.223,4.223,0,0,1,.964.092,4.5,4.5,0,0,1,.622.19v-.183a.977.977,0,0,0-.378-.787,1.431,1.431,0,0,0-.941-.311,1.76,1.76,0,0,0-1.4.7l-1.16-.794a3.148,3.148,0,0,1,2.6-1.2,3.093,3.093,0,0,1,2.125.653,2.461,2.461,0,0,1,.733,1.936v3.591H423.5v-.635Zm0-1.8a3.377,3.377,0,0,0-.579-.214,2.565,2.565,0,0,0-.653-.08,1.381,1.381,0,0,0-.885.25.763.763,0,0,0-.311.617.691.691,0,0,0,.3.586,1.129,1.129,0,0,0,.691.219,1.469,1.469,0,0,0,.586-.116,1.432,1.432,0,0,0,.458-.306,1.338,1.338,0,0,0,.293-.44,1.352,1.352,0,0,0,.1-.519Z" transform="translate(-350.811 -343.562)" fill="#f8f8f8"/>
        <path id="Path_21356" data-name="Path 21356" d="M459.391,339.33H458.34v-1.368h1.051V336.13h1.6v1.832h1.465v1.368H460.99v2.391a1.77,1.77,0,0,0,.043.4.634.634,0,0,0,.165.308.605.605,0,0,0,.488.2,1.032,1.032,0,0,0,.329-.043,1,1,0,0,0,.232-.116l.452,1.4a2.6,2.6,0,0,1-.6.2,3.561,3.561,0,0,1-.714.067,2.155,2.155,0,0,1-.812-.144,1.7,1.7,0,0,1-.6-.393,2.13,2.13,0,0,1-.574-1.6v-2.679Z" transform="translate(-383.319 -335.199)" fill="#f8f8f8"/>
      </g>
    </g>
  </g>
</svg>
