<svg id="horizontal-colored" xmlns="http://www.w3.org/2000/svg" xmlns:xlink="http://www.w3.org/1999/xlink" width="125.335" height="22.197" viewBox="0 0 125.335 22.197">
  <defs>
    <linearGradient id="linear-gradient" x1="-2.133" y1="12.266" x2="-2.106" y2="12.073" gradientUnits="objectBoundingBox">
      <stop offset="0" stop-color="#2c7fff"/>
      <stop offset="1" stop-color="#0741d2"/>
    </linearGradient>
  </defs>
  <g id="Group_2" data-name="Group 2" transform="translate(38.495 6.756)">
    <path id="Path_25" data-name="Path 25" d="M157.359,49.936a5.1,5.1,0,0,1-1.429-.2,3.344,3.344,0,0,1-1.078-.52,3.681,3.681,0,0,1-.777-.742,3.582,3.582,0,0,1-.476-.841l1.955-.817a2.253,2.253,0,0,0,.752.94,2.015,2.015,0,0,0,1.078.3,1.744,1.744,0,0,0,.952-.223.6.6,0,0,0,.05-1.064,2.631,2.631,0,0,0-1-.371l-1.153-.247a3.847,3.847,0,0,1-.8-.272,2.946,2.946,0,0,1-.752-.47,2.812,2.812,0,0,1-.551-.668,1.839,1.839,0,0,1-.226-.916,2.155,2.155,0,0,1,.251-1.064,2.37,2.37,0,0,1,.7-.792,3.315,3.315,0,0,1,1.078-.495,4.537,4.537,0,0,1,1.328-.173,4.855,4.855,0,0,1,2.105.445,2.687,2.687,0,0,1,1.353,1.46l-1.9.767a1.41,1.41,0,0,0-.677-.693,2.023,2.023,0,0,0-.9-.223,1.85,1.85,0,0,0-.827.2.58.58,0,0,0-.351.495.475.475,0,0,0,.3.445,3.2,3.2,0,0,0,.8.3l1.253.3a3.929,3.929,0,0,1,1.88.94,2.214,2.214,0,0,1,.6,1.559,2.1,2.1,0,0,1-.251,1.015,2.807,2.807,0,0,1-.7.841,3.591,3.591,0,0,1-1.1.594A4.851,4.851,0,0,1,157.359,49.936Z" transform="translate(-153.6 -37.836)" fill="#fff"/>
    <path id="Path_26" data-name="Path 26" d="M192.941,48.774a2.4,2.4,0,0,1-.927.866,3.1,3.1,0,0,1-1.579.371,3.5,3.5,0,0,1-1.5-.322,4.106,4.106,0,0,1-1.253-.891,4.2,4.2,0,0,1-.852-1.361,4.846,4.846,0,0,1-.326-1.732,4.358,4.358,0,0,1,.326-1.732,4.2,4.2,0,0,1,.852-1.361,4.106,4.106,0,0,1,1.253-.891,3.5,3.5,0,0,1,1.5-.322,2.943,2.943,0,0,1,2.657,1.41V41.4h2.055V53.352h-2.205Zm-2.08-.767a2.233,2.233,0,0,0,.827-.148,2.106,2.106,0,0,0,.7-.445,2.4,2.4,0,0,0,.476-.718,2.493,2.493,0,0,0,.175-.99,2.294,2.294,0,0,0-.175-.965,2.126,2.126,0,0,0-.476-.718,1.882,1.882,0,0,0-.7-.445,2.33,2.33,0,0,0-.827-.148,1.836,1.836,0,0,0-.827.173,2.671,2.671,0,0,0-.7.47,2.4,2.4,0,0,0-.476.718,2.742,2.742,0,0,0,0,1.93,2.126,2.126,0,0,0,.476.718,2.315,2.315,0,0,0,.7.47A4.715,4.715,0,0,0,190.861,48.007Z" transform="translate(-178.255 -37.911)" fill="#fff"/>
    <path id="Path_27" data-name="Path 27" d="M233.564,48.4a3.309,3.309,0,0,1-1.178,1.188,2.934,2.934,0,0,1-1.5.346,2.9,2.9,0,0,1-2.331-.94,3.9,3.9,0,0,1-.752-2.524V41.3h2.205v4.924a1.834,1.834,0,0,0,.4,1.311,1.523,1.523,0,0,0,1.153.421,1.67,1.67,0,0,0,.8-.2,1.644,1.644,0,0,0,.576-.52,3.141,3.141,0,0,0,.376-.767,3.712,3.712,0,0,0,.125-.94V41.3h2.205v8.636h-2.055V48.4Z" transform="translate(-209.204 -37.836)" fill="#fff"/>
    <path id="Path_28" data-name="Path 28" d="M269.914,48.625a3.881,3.881,0,0,1-1,.94,2.864,2.864,0,0,1-1.454.371,3.829,3.829,0,0,1-1.2-.2,3.161,3.161,0,0,1-.977-.569,2.732,2.732,0,0,1-.652-.866,2.8,2.8,0,0,1-.225-1.138,2.452,2.452,0,0,1,.251-1.138,2.624,2.624,0,0,1,.7-.866,3.03,3.03,0,0,1,1.053-.544,4.525,4.525,0,0,1,1.328-.2,6.536,6.536,0,0,1,1.328.124,7.442,7.442,0,0,1,.852.247v-.247a1.306,1.306,0,0,0-.526-1.064,2.052,2.052,0,0,0-1.3-.421,2.467,2.467,0,0,0-1.93.94l-1.6-1.064a4.334,4.334,0,0,1,3.584-1.633,4.2,4.2,0,0,1,2.907.891,3.286,3.286,0,0,1,1,2.623v5.122h-2.155V48.625Zm0-2.227a4.435,4.435,0,0,0-.8-.3,3.475,3.475,0,0,0-.9-.1,2.005,2.005,0,0,0-1.228.346,1.038,1.038,0,0,0-.426.841.927.927,0,0,0,.4.792,1.609,1.609,0,0,0,.952.3,2.1,2.1,0,0,0,.8-.148,1.853,1.853,0,0,0,.627-.421,1.919,1.919,0,0,0,.4-.594A1.587,1.587,0,0,0,269.914,46.4Z" transform="translate(-236.631 -37.836)" fill="#fff"/>
    <path id="Path_29" data-name="Path 29" d="M302,41.225h2.055v1.608a5.216,5.216,0,0,1,.526-.767,3.094,3.094,0,0,1,.551-.445,2.791,2.791,0,0,1,.677-.3,2.471,2.471,0,0,1,.7-.124,2.211,2.211,0,0,1,.752.1,2.585,2.585,0,0,1,.526.247l-.576,1.93a1.209,1.209,0,0,0-.451-.148,2.091,2.091,0,0,0-.6-.049,1.835,1.835,0,0,0-.827.173,1.732,1.732,0,0,0-.627.495,2.664,2.664,0,0,0-.4.742,2.7,2.7,0,0,0-.15.916v4.256H302Z" transform="translate(-264.808 -37.76)" fill="#fff"/>
    <path id="Path_30" data-name="Path 30" d="M333.72,47.809a4.727,4.727,0,0,1-1.529,1.608,4.227,4.227,0,0,1-2.356.619,4.389,4.389,0,0,1-3.108-1.213,3.819,3.819,0,0,1-.9-1.361,4.275,4.275,0,0,1-.326-1.732,4.081,4.081,0,0,1,.326-1.658,4.222,4.222,0,0,1,.877-1.386,4.2,4.2,0,0,1,3.083-1.287,4.345,4.345,0,0,1,1.754.322,4.043,4.043,0,0,1,1.3.891,3.664,3.664,0,0,1,.777,1.361,5.268,5.268,0,0,1,.276,1.683v.569H327.63a2.091,2.091,0,0,0,.276.841,1.744,1.744,0,0,0,.526.594,2.183,2.183,0,0,0,.677.346,2.618,2.618,0,0,0,.752.1,2.2,2.2,0,0,0,1.253-.346,2.493,2.493,0,0,0,.777-.841Zm-2-3.143a.934.934,0,0,0-.15-.47,1.373,1.373,0,0,0-.376-.495,2.052,2.052,0,0,0-.6-.371,2.273,2.273,0,0,0-.852-.148,2.041,2.041,0,0,0-1.253.4,2.223,2.223,0,0,0-.752,1.114h3.985Z" transform="translate(-282.418 -37.911)" fill="#fff"/>
    <path id="Path_31" data-name="Path 31" d="M364.4,27.3h2.205v4.726h0a2.238,2.238,0,0,1,.927-.866,3.1,3.1,0,0,1,1.579-.371,3.5,3.5,0,0,1,1.5.322,4.1,4.1,0,0,1,1.253.891,4.2,4.2,0,0,1,.852,1.361,4.847,4.847,0,0,1,.326,1.732,4.359,4.359,0,0,1-.326,1.732,4.2,4.2,0,0,1-.852,1.361,4.1,4.1,0,0,1-1.253.891,3.5,3.5,0,0,1-1.5.322,3.1,3.1,0,0,1-1.579-.371,3.012,3.012,0,0,1-1.078-1.089v1.435H364.4Zm4.261,10.1a1.836,1.836,0,0,0,.827-.173,2.178,2.178,0,0,0,.7-.47,2.4,2.4,0,0,0,.476-.718,2.743,2.743,0,0,0,0-1.93,2.126,2.126,0,0,0-.476-.718,2.313,2.313,0,0,0-.7-.47,2.474,2.474,0,0,0-.827-.173,2.233,2.233,0,0,0-.827.148,1.882,1.882,0,0,0-.7.445,2.4,2.4,0,0,0-.476.718,2.45,2.45,0,0,0-.176.965,2.492,2.492,0,0,0,.176.99,2.126,2.126,0,0,0,.476.718,1.882,1.882,0,0,0,.7.445A1.491,1.491,0,0,0,368.661,37.4Z" transform="translate(-311.569 -27.3)" fill="#fff"/>
    <path id="Path_32" data-name="Path 32" d="M407.061,41.3a4.513,4.513,0,0,1,1.754.322,4.693,4.693,0,0,1,1.378.891,4.442,4.442,0,0,1,0,6.186,4.392,4.392,0,0,1-3.133,1.213,4.513,4.513,0,0,1-1.754-.322,4.388,4.388,0,0,1-1.378-.891,4.442,4.442,0,0,1,0-6.186,4.388,4.388,0,0,1,1.378-.891A5.019,5.019,0,0,1,407.061,41.3Zm0,6.632a2.2,2.2,0,0,0,.8-.148,2.107,2.107,0,0,0,.7-.445,2.4,2.4,0,0,0,.476-.718,2.493,2.493,0,0,0,.175-.99,2.294,2.294,0,0,0-.175-.965,2.126,2.126,0,0,0-.476-.718,1.882,1.882,0,0,0-.7-.445,2.2,2.2,0,0,0-.8-.148,2.233,2.233,0,0,0-.827.148,2.005,2.005,0,0,0-.677.445,2.4,2.4,0,0,0-.476.718,2.451,2.451,0,0,0-.175.965,2.493,2.493,0,0,0,.175.99,2.125,2.125,0,0,0,.476.718,2.005,2.005,0,0,0,.677.445A2.434,2.434,0,0,0,407.061,47.932Z" transform="translate(-340.27 -37.836)" fill="#fff"/>
    <path id="Path_33" data-name="Path 33" d="M446.739,48.649a3.923,3.923,0,0,1-1.078.965,2.674,2.674,0,0,1-1.4.322,3.828,3.828,0,0,1-1.2-.2,3.16,3.16,0,0,1-.977-.569,2.732,2.732,0,0,1-.652-.866,2.8,2.8,0,0,1-.226-1.138,2.452,2.452,0,0,1,.251-1.138,2.624,2.624,0,0,1,.7-.866,3.031,3.031,0,0,1,1.053-.544,4.524,4.524,0,0,1,1.328-.2,6.537,6.537,0,0,1,1.328.124,7.439,7.439,0,0,1,.852.247v-.247a1.306,1.306,0,0,0-.526-1.064,2.052,2.052,0,0,0-1.3-.421,2.467,2.467,0,0,0-1.93.94l-1.6-1.064a4.334,4.334,0,0,1,3.584-1.633,4.2,4.2,0,0,1,2.907.891,3.286,3.286,0,0,1,1,2.623v5.122h-2.155V48.649Zm0-2.252a4.433,4.433,0,0,0-.8-.3,3.476,3.476,0,0,0-.9-.1,2.005,2.005,0,0,0-1.228.346,1.039,1.039,0,0,0-.426.841.927.927,0,0,0,.4.792,1.609,1.609,0,0,0,.952.3,2.1,2.1,0,0,0,.8-.148,1.853,1.853,0,0,0,.626-.421,1.921,1.921,0,0,0,.4-.594A1.587,1.587,0,0,0,446.739,46.4Z" transform="translate(-369.121 -37.836)" fill="#fff"/>
    <path id="Path_34" data-name="Path 34" d="M477.554,36.73H476.1V34.875h1.454V32.4h2.205v2.475h2.005V36.73h-2.005v3.242a3.654,3.654,0,0,0,.05.544,1.136,1.136,0,0,0,.226.421.854.854,0,0,0,.677.272,1.891,1.891,0,0,0,.451-.049c.1-.049.226-.1.326-.148l.627,1.905a2.946,2.946,0,0,1-.827.272,5.929,5.929,0,0,1-.977.1,3.017,3.017,0,0,1-1.1-.2,2.092,2.092,0,0,1-.827-.544,2.845,2.845,0,0,1-.777-2.153V36.73Z" transform="translate(-395.275 -31.138)" fill="#fff"/>
  </g>
  <g id="Group_620" data-name="Group 620">
    <path id="Fill-2-Copy-2" d="M0,38.1l5.589,9.428H16.767L11.178,38.1Z" transform="translate(0 -28.672)" fill="url(#linear-gradient)"/>
    <path id="Fill-3" d="M79.589,38.1,74,47.528h9.4L88.987,38.1Z" transform="translate(-55.454 -28.672)" fill="#2c7fff"/>
    <path id="Fill-1" d="M22.3,18.856H33.478l5.589-9.428L33.478,0Z" transform="translate(-16.711)" fill="#2c7fff"/>
  </g>
</svg>
