<svg version="1.1" id="Layer_1" class="svgLogoTextHolder svgMainSiteLogo" xmlns="http://www.w3.org/2000/svg" xmlns:xlink="http://www.w3.org/1999/xlink" x="0px" y="0px" viewBox="0 0 375.7 67.3" style="enable-background:new 0 0 375.7 67.3;" xml:space="preserve">

  <g id="XMLID_28_" class="logo-text">
    <g class="logo">
      <linearGradient id="Fill-2-Copy-2_1_" gradientUnits="userSpaceOnUse" x1="-196.8914" y1="305.1321" x2="-195.5161" y2="299.6064" gradientTransform="matrix(7.2429 0 0 -6.2675 1446.8519 1940.2797)">
        <stop offset="0" style="stop-color:#2C7FFF"></stop>
        <stop offset="1" style="stop-color:#0741D2"></stop>
      </linearGradient>
      <polygon id="Fill-2-Copy-2" class="stroke0" points="0,28.6 16.8,57.3 50.3,57.3 33.5,28.6 	"></polygon>
      <polygon id="Fill-3" class="stroke1" points="72.4,28.6 55.6,57.3 83.8,57.3 100.5,28.6 	"></polygon>
      <polygon id="Fill-1" class="stroke1" points="16.8,57.3 50.3,57.3 67,28.6 50.3,0 	"></polygon>
    </g>
    <g id="XMLID_29_" class="text">
        <path id="XMLID_54_" class="stroke2" d="M126.7,57.3c-1.6,0-3-0.2-4.3-0.6c-1.3-0.4-2.3-0.9-3.3-1.6c-0.9-0.7-1.7-1.4-2.3-2.3
          c-0.6-0.9-1.1-1.7-1.5-2.6l5.9-2.5c0.6,1.3,1.3,2.2,2.3,2.8c1,0.6,2,0.9,3.2,0.9c1.2,0,2.2-0.2,2.9-0.7c0.7-0.4,1.1-1,1.1-1.6
          c0-0.7-0.3-1.2-0.9-1.6c-0.6-0.4-1.6-0.8-3-1.1l-3.5-0.8c-0.8-0.2-1.6-0.4-2.4-0.8c-0.8-0.4-1.6-0.8-2.2-1.4
          c-0.7-0.6-1.2-1.3-1.7-2.1c-0.4-0.8-0.7-1.7-0.7-2.8c0-1.2,0.3-2.3,0.8-3.2s1.2-1.7,2.1-2.4c0.9-0.7,2-1.2,3.2-1.5
          c1.2-0.4,2.5-0.5,3.9-0.5c2.3,0,4.4,0.5,6.3,1.4c1.8,0.9,3.2,2.4,4.1,4.4l-5.7,2.3c-0.5-1-1.2-1.7-2.1-2.1
          c-0.9-0.4-1.8-0.7-2.7-0.7c-0.9,0-1.8,0.2-2.5,0.6c-0.7,0.4-1.1,0.9-1.1,1.5c0,0.6,0.3,1,0.9,1.4c0.6,0.3,1.4,0.6,2.4,0.9l3.8,0.9
          c2.5,0.6,4.4,1.6,5.6,2.9c1.2,1.3,1.8,2.9,1.8,4.7c0,1.1-0.2,2.1-0.8,3.1c-0.5,1-1.2,1.8-2.1,2.6c-0.9,0.8-2,1.3-3.3,1.8
          C129.7,57.1,128.3,57.3,126.7,57.3z"></path>
        <path id="XMLID_51_" class="stroke2" d="M159.4,53.5c-0.6,1-1.5,1.9-2.8,2.7c-1.3,0.7-2.8,1.1-4.7,1.1c-1.6,0-3.1-0.3-4.5-1
          c-1.4-0.7-2.7-1.6-3.8-2.7c-1.1-1.2-2-2.5-2.6-4.1c-0.6-1.6-1-3.4-1-5.3s0.3-3.7,1-5.3c0.6-1.6,1.5-3,2.6-4.2
          c1.1-1.2,2.3-2.1,3.8-2.7c1.4-0.7,2.9-1,4.5-1c1.9,0,3.5,0.4,4.7,1.1c1.3,0.7,2.5,1.9,3.2,3.1l0-4.2h6.2l0,36.3h-6.6V53.5z
          M153.2,51.2c0.9,0,1.7-0.2,2.5-0.5c0.8-0.3,1.5-0.8,2.1-1.4c0.6-0.6,1.1-1.3,1.5-2.2c0.4-0.9,0.6-1.9,0.6-3c0-1.1-0.2-2.1-0.6-3
          c-0.4-0.9-0.9-1.6-1.5-2.2c-0.6-0.6-1.3-1.1-2.1-1.4c-0.8-0.3-1.6-0.5-2.5-0.5c-0.9,0-1.7,0.2-2.5,0.5c-0.8,0.3-1.5,0.8-2.1,1.4
          c-0.6,0.6-1.1,1.3-1.5,2.2c-0.4,0.9-0.6,1.8-0.6,2.9c0,1.1,0.2,2,0.6,2.9c0.4,0.9,0.9,1.6,1.5,2.2c0.6,0.6,1.3,1.1,2.1,1.4
          C151.5,51,152.3,51.2,153.2,51.2z"></path>
        <path id="XMLID_49_" class="stroke2" d="M188.5,52.6c-0.8,1.3-1.8,2.5-3.5,3.6c-1.3,0.8-2.8,1.1-4.5,1.1c-3.1,0-5.4-1-7-2.9
          c-1.5-1.9-2.3-4.5-2.3-7.6V31h6.6V46c0,1.8,0.4,3.1,1.2,3.9c0.8,0.9,1.9,1.3,3.4,1.3c0.9,0,1.7-0.2,2.4-0.6
          c0.7-0.4,1.3-0.9,1.8-1.6c0.5-0.7,0.9-1.4,1.1-2.3c0.3-0.9,0.4-1.8,0.4-2.8V31h6.6l0,26.2h-6.2V52.6z"></path>
        <path id="XMLID_46_" class="stroke2" d="M215.2,53.3c-1,1.3-1.9,2.2-3,2.9c-1.1,0.7-2.7,1.1-4.4,1.1c-1.3,0-2.5-0.2-3.6-0.6
          c-1.1-0.4-2.1-1-2.9-1.7c-0.8-0.7-1.5-1.6-2-2.7s-0.7-2.2-0.7-3.4c0-1.3,0.2-2.4,0.8-3.4c0.5-1,1.2-1.9,2.1-2.6
          c0.9-0.7,2-1.3,3.2-1.7c1.2-0.4,2.6-0.6,4-0.6c1.6,0,2.9,0.1,4,0.4c1,0.2,1.9,0.5,2.6,0.8v-0.8c0-1.3-0.5-2.4-1.6-3.2
          c-1-0.9-2.3-1.3-3.9-1.3c-2.3,0-4.2,1-5.8,2.9l-4.8-3.3c2.6-3.3,6.2-4.9,10.7-4.9c3.8,0,6.7,0.9,8.7,2.7c2,1.8,3,4.4,3,8l0,15.6
          h-6.5V53.3z M215.2,46.5c-0.8-0.4-1.6-0.7-2.4-0.9c-0.8-0.2-1.7-0.3-2.7-0.3c-1.6,0-2.8,0.3-3.6,1c-0.9,0.7-1.3,1.5-1.3,2.5
          s0.4,1.8,1.2,2.4c0.8,0.6,1.8,0.9,2.8,0.9c0.9,0,1.7-0.2,2.4-0.5c0.7-0.3,1.4-0.7,1.9-1.3c0.5-0.5,0.9-1.1,1.2-1.8
          C215.1,47.9,215.2,47.2,215.2,46.5z"></path>
        <path id="XMLID_44_" class="stroke2" d="M226.9,31h6.2V36c0.3-0.6,1.1-1.8,1.6-2.3c0.5-0.5,1.1-0.9,1.7-1.3c0.6-0.4,1.3-0.7,2-0.9
          c0.7-0.2,1.4-0.3,2.1-0.3c0.9,0,1.6,0.1,2.2,0.3c0.6,0.2,1.1,0.4,1.6,0.7l-1.8,5.9c-0.4-0.2-0.8-0.4-1.3-0.5
          c-0.5-0.1-1.1-0.2-1.8-0.2c-0.9,0-1.7,0.2-2.5,0.5c-0.7,0.4-1.4,0.9-1.9,1.5c-0.5,0.6-0.9,1.4-1.2,2.2c-0.3,0.9-0.4,1.8-0.4,2.8
          v12.9h-6.6V31z"></path>
        <path id="XMLID_41_" class="stroke2" d="M269.2,50.6c-1.1,2-2.7,3.6-4.6,4.9c-1.9,1.2-4.3,1.9-7.1,1.9c-1.9,0-3.6-0.3-5.2-1
          c-1.6-0.7-3-1.6-4.1-2.7c-1.2-1.2-2.1-2.6-2.7-4.2c-0.7-1.6-1-3.3-1-5.3c0-1.8,0.3-3.5,1-5.1c0.6-1.6,1.5-3,2.7-4.2
          c1.1-1.2,2.5-2.1,4-2.8c1.6-0.7,3.3-1.1,5.2-1.1c2,0,3.7,0.3,5.3,1c1.5,0.7,2.8,1.6,3.9,2.7c1,1.2,1.8,2.5,2.4,4.1
          s0.8,3.3,0.8,5.1c0,0.2,0,0.4,0,0.6c0,0.2,0,0.9,0,1.1H251c0.1,1,0.4,1.9,0.8,2.6c0.4,0.7,0.9,1.3,1.6,1.8s1.3,0.8,2,1.1
          c0.7,0.2,1.5,0.3,2.3,0.3c1.5,0,2.8-0.3,3.7-1c1-0.7,1.8-1.6,2.3-2.6L269.2,50.6z M263.2,41c0-0.4-0.2-0.9-0.4-1.5
          c-0.2-0.5-0.6-1-1.1-1.5c-0.5-0.5-1.1-0.9-1.8-1.2c-0.7-0.3-1.6-0.5-2.6-0.5c-1.4,0-2.6,0.4-3.7,1.2c-1.1,0.8-1.8,1.9-2.3,3.4
          H263.2z"></path>
        <path id="XMLID_38_" class="stroke2" d="M273.8,20.5h6.6v10.8v3.5l0,0c0.6-1,1.5-1.9,2.8-2.7c1.3-0.7,2.9-1.1,4.7-1.1
          c1.6,0,3.1,0.3,4.5,1c1.4,0.7,2.7,1.6,3.8,2.7c1.1,1.2,2,2.5,2.6,4.2c0.6,1.6,1,3.4,1,5.3s-0.3,3.7-1,5.3c-0.6,1.6-1.5,3-2.6,4.1
          c-1.1,1.2-2.3,2.1-3.8,2.7c-1.4,0.7-2.9,1-4.5,1c-1.9,0-3.5-0.4-4.7-1.1c-1.3-0.7-2.5-1.9-3.2-3.3v4.4h-6.2L273.8,20.5z
          M286.6,51.2c0.9,0,1.7-0.2,2.5-0.5c0.8-0.3,1.5-0.8,2.1-1.4s1.1-1.3,1.5-2.2c0.4-0.9,0.6-1.8,0.6-2.9c0-1.1-0.2-2-0.6-2.9
          c-0.4-0.9-0.9-1.6-1.5-2.2c-0.6-0.6-1.3-1.1-2.1-1.4c-0.8-0.3-1.6-0.5-2.5-0.5c-0.9,0-1.7,0.2-2.5,0.5c-0.8,0.3-1.5,0.8-2.1,1.4
          c-0.6,0.6-1.1,1.3-1.5,2.2c-0.4,0.9-0.5,1.9-0.5,3c0,1.1,0.2,2.1,0.5,3c0.4,0.9,0.9,1.6,1.5,2.2c0.6,0.6,1.3,1.1,2.1,1.4
          C284.9,51,285.7,51.2,286.6,51.2z"></path>
        <path id="XMLID_35_" class="stroke2" d="M315.7,31c1.9,0,3.7,0.3,5.3,1c1.6,0.7,3,1.6,4.1,2.7c1.2,1.2,2.1,2.5,2.7,4.2
          c0.7,1.6,1,3.4,1,5.3s-0.3,3.7-1,5.3c-0.7,1.6-1.6,3-2.7,4.1c-1.2,1.2-2.5,2.1-4.1,2.7c-1.6,0.7-3.3,1-5.3,1c-1.9,0-3.7-0.3-5.3-1
          c-1.6-0.7-3-1.6-4.1-2.7c-1.2-1.2-2.1-2.5-2.7-4.1c-0.7-1.6-1-3.4-1-5.3s0.3-3.7,1-5.3c0.7-1.6,1.6-3,2.7-4.2
          c1.2-1.2,2.5-2.1,4.1-2.7C312,31.4,313.7,31,315.7,31z M315.7,51.2c0.8,0,1.7-0.2,2.4-0.5c0.8-0.3,1.5-0.8,2.1-1.4
          c0.6-0.6,1.1-1.3,1.4-2.2c0.3-0.9,0.5-1.9,0.5-3c0-1.1-0.2-2.1-0.5-3c-0.4-0.9-0.8-1.6-1.4-2.2c-0.6-0.6-1.3-1.1-2.1-1.4
          c-0.8-0.3-1.6-0.5-2.4-0.5c-0.9,0-1.7,0.2-2.5,0.5c-0.8,0.3-1.5,0.8-2.1,1.4s-1.1,1.3-1.4,2.2c-0.4,0.9-0.5,1.9-0.5,3
          c0,1.1,0.2,2.1,0.5,3c0.4,0.9,0.8,1.6,1.4,2.2c0.6,0.6,1.3,1.1,2.1,1.4C314,51,314.8,51.2,315.7,51.2z"></path>
        <path id="XMLID_32_" class="stroke2" d="M348.1,53.4c-0.9,1.2-2.1,2.3-3.2,2.9c-1.1,0.7-2.5,1-4.2,1c-1.3,0-2.5-0.2-3.6-0.6
          c-1.1-0.4-2.1-1-2.9-1.7c-0.8-0.7-1.5-1.6-2-2.7c-0.5-1-0.7-2.2-0.7-3.4c0-1.3,0.2-2.4,0.8-3.4c0.5-1,1.2-1.9,2.1-2.6
          c0.9-0.7,2-1.3,3.2-1.7c1.2-0.4,2.6-0.6,4-0.6c1.6,0,2.9,0.1,4,0.4c1,0.2,1.9,0.5,2.6,0.8v-0.8c0-1.3-0.5-2.4-1.6-3.2
          c-1-0.9-2.3-1.3-3.9-1.3c-2.3,0-4.2,1-5.8,2.9l-4.8-3.3c2.6-3.3,6.2-4.9,10.7-4.9c3.8,0,6.7,0.9,8.7,2.7c2,1.8,3,4.4,3,8l0,15.6
          h-6.5V53.4z M348.1,46.5c-0.8-0.4-1.6-0.7-2.4-0.9c-0.8-0.2-1.7-0.3-2.7-0.3c-1.6,0-2.8,0.3-3.6,1c-0.9,0.7-1.3,1.5-1.3,2.5
          s0.4,1.8,1.2,2.4c0.8,0.6,1.8,0.9,2.8,0.9c0.9,0,1.7-0.2,2.4-0.5c0.7-0.3,1.4-0.7,1.9-1.3c0.5-0.5,0.9-1.1,1.2-1.8
          C348,47.9,348.1,47.2,348.1,46.5z"></path>
        <path id="XMLID_30_" class="stroke2" d="M362.1,37.5h-4.3v-5.6h4.3v-7.5h6.6v7.5h6v5.6h-6v9.8c0,0.6,0.1,1.1,0.2,1.6
          c0.1,0.5,0.3,0.9,0.7,1.3c0.5,0.6,1.1,0.8,2,0.8c0.6,0,1-0.1,1.4-0.2c0.3-0.1,0.7-0.3,1-0.5l1.9,5.8c-0.8,0.4-1.6,0.6-2.5,0.8
          c-0.9,0.2-1.9,0.3-2.9,0.3c-1.2,0-2.4-0.2-3.3-0.6c-1-0.4-1.8-0.9-2.5-1.6c-1.6-1.5-2.4-3.7-2.4-6.6V37.5z"></path>
      </g>
  </g>
</svg>